<svg xmlns="http://www.w3.org/2000/svg" width="400" height="400" viewBox="0 0 400 400"><path d="M251.62 40.952l4.172-6.25 4.097-6.161 9.223-13.834a3.714 3.714 0 0 0-1.013-5.125 3.712 3.712 0 0 0-5.147 1.028l-9.879 14.833-4.156 6.235-4.217 6.317c-13.365-5.185-28.265-8.09-43.998-8.09-15.727 0-30.626 2.905-43.991 8.09l-4.194-6.317-4.157-6.235-9.894-14.84a3.711 3.711 0 0 0-5.133-1.028 3.704 3.704 0 0 0-1.028 5.126l9.215 13.834 4.112 6.161 4.172 6.25c-31.386 14.616-52.618 42.307-52.618 74.005h207.05c.001-31.692-21.223-59.383-52.616-73.999zm-95.275 44.423c-6.138 0-11.1-4.969-11.1-11.093 0-6.131 4.962-11.085 11.1-11.085a11.078 11.078 0 0 1 11.085 11.085c.001 6.123-4.961 11.093-11.085 11.093zm88.726 0c-6.123 0-11.085-4.969-11.085-11.093a11.079 11.079 0 0 1 11.085-11.085c6.139 0 11.101 4.954 11.101 11.085 0 6.123-4.962 11.093-11.101 11.093zm-146.29 44.37h-1.594v162.694c0 12.918 10.497 23.422 23.415 23.422h16.903a22.067 22.067 0 0 0-.886 6.153v46.844c0 12.248 9.938 22.186 22.192 22.186 12.248 0 22.186-9.938 22.186-22.186v-46.844c0-2.131-.328-4.201-.879-6.153h41.189a22.322 22.322 0 0 0-.871 6.153v46.844c0 12.248 9.938 22.186 22.178 22.186 12.247 0 22.186-9.938 22.186-22.186v-46.844a22.06 22.06 0 0 0-.88-6.153h16.904c12.91 0 23.414-10.504 23.414-23.422V129.745H98.781zm-38.574 0c-12.254 0-22.185 9.923-22.185 22.192v94.895c0 12.24 9.931 22.178 22.185 22.178 12.24 0 22.178-9.938 22.178-22.178V151.93c0-12.262-9.931-22.185-22.178-22.185zm281.018 0c-12.262 0-22.185 9.923-22.185 22.192v94.895c0 12.24 9.923 22.178 22.185 22.178 12.24 0 22.163-9.938 22.163-22.178V151.93c0-12.262-9.923-22.185-22.163-22.185z" fill="#FFF"/></svg>