<svg xmlns="http://www.w3.org/2000/svg" width="400" height="400" viewBox="0 0 400 400"><path fill="#FFF" d="M159.461 167.879l87.466 40.048 88.424-77.532a98.511 98.511 0 0 0 1.921-19.543c0-54.464-44.21-98.677-98.676-98.677-32.68 0-63.114 16.018-81.376 42.93l-14.739 76.252 16.98 36.522zm-90.668 92.59c-1.28 6.408-1.922 13.136-1.922 19.863 0 54.465 44.532 98.998 98.997 98.998 33.001 0 63.437-16.339 82.018-43.251l14.418-76.251-19.543-37.164-87.785-40.047-86.183 77.852zm-.639-151.541l59.912 14.099 13.455-68.242c-8.329-6.408-18.262-9.611-28.834-9.611-25.952 0-47.416 21.145-47.416 47.416 0 5.447.961 11.214 2.882 16.338h.001zm-5.128 14.417c-26.912 8.651-45.494 34.602-45.494 62.795 0 27.553 16.98 52.223 42.611 61.833l84.261-76.25-15.38-32.998-65.998-15.379v-.001zm200.239 212.413c8.33 6.41 18.263 9.934 28.514 9.934 25.952 0 47.417-21.146 47.417-47.416 0-5.768-.961-11.215-2.882-16.341l-59.911-14.096-13.138 67.919zm12.174-83.619l66 15.379c26.91-8.97 45.493-34.601 45.493-62.796 0-27.553-16.979-51.9-42.612-61.832l-86.501 75.61 17.62 33.639z"/></svg>