<svg xmlns="http://www.w3.org/2000/svg" width="512" height="512" viewBox="0 0 512 512"><g fill="#FFF"><path d="M425.5 135.4c4.7-5.9 7.5-13.5 7.5-21.6 0-19.2-15.6-34.8-34.8-34.8-8.2 0-15.7 2.8-21.601 7.5C342.6 62.3 300.9 48 256 48 141.1 48 48 141.1 48 256s93.1 208 208 208 208-93.1 208-208c0-44.9-14.3-86.6-38.5-120.6zm-33.7 256.4c-17.6 17.601-38.2 31.5-61.1 41.2-23.7 10-48.8 15.1-74.8 15.1-25.9 0-51.1-5.1-74.8-15.1-22.9-9.7-43.4-23.5-61.1-41.2-17.6-17.6-31.5-38.2-41.2-61.1-10-23.7-15.1-48.8-15.1-74.8 0-25.9 5.1-51.1 15.1-74.8 9.7-22.9 23.5-43.4 41.2-61.1s38.2-31.5 61.1-41.2c23.7-10 48.8-15.1 74.8-15.1 25.9 0 51.1 5.1 74.8 15.1 12.7 5.4 24.7 12.1 35.899 20-2.1 4.5-3.3 9.5-3.3 14.9 0 19.2 15.601 34.8 34.8 34.8 5.301 0 10.301-1.2 14.9-3.3 7.9 11.2 14.6 23.2 20 35.9 10 23.7 15.1 48.8 15.1 74.8 0 25.9-5.1 51.1-15.1 74.8-9.699 22.9-23.499 43.5-41.199 61.1z"/><circle cx="256" cy="256" r="96.1"/></g></svg>