<svg xmlns="http://www.w3.org/2000/svg" width="512" height="512" viewBox="0 0 512 512"><g fill="#FFF"><path d="M33.047 151.303C-10.06 211.44-4.688 289.682 28.235 353.586c.784 1.532 1.604 3.039 2.414 4.551.516.95 1.002 1.932 1.54 2.871.302.566.643 1.118.958 1.659.563 1.021 1.136 1.987 1.72 2.983a279.276 279.276 0 0 0 3.143 5.227c.594.956 1.18 1.911 1.792 2.866a230.86 230.86 0 0 0 3.649 5.542c.519.783 1.023 1.567 1.555 2.325a258.434 258.434 0 0 0 5.281 7.406c.047.061.099.127.152.188.287.394.604.778.894 1.168a256.476 256.476 0 0 0 4.812 6.218c.601.744 1.211 1.492 1.815 2.24a318.891 318.891 0 0 0 4.448 5.308c.565.657 1.131 1.319 1.701 1.967a280.961 280.961 0 0 0 6.201 6.877c.037.041.086.086.125.126.085.097.162.157.237.248a304.003 304.003 0 0 0 6.303 6.458 364.776 364.776 0 0 0 7.05 6.765c.689.632 1.373 1.283 2.057 1.895a249.063 249.063 0 0 0 6.894 6.088c.041.04.07.071.109.086.396.344.807.674 1.198.991a336.31 336.31 0 0 0 6.264 5.142c.86.673 1.729 1.341 2.595 2.007a275.244 275.244 0 0 0 5.221 3.96 722.63 722.63 0 0 0 2.792 2.062 295.145 295.145 0 0 0 5.857 4.075c.719.506 1.414.99 2.136 1.472.198.136.38.277.583.408a264.519 264.519 0 0 0 5.687 3.651c.82.529 1.636 1.076 2.464 1.591a365.383 365.383 0 0 0 8.906 5.301c.818.449 1.641.896 2.461 1.344a294.849 294.849 0 0 0 6.685 3.641c1.216.637 2.469 1.238 3.695 1.845 1.594.814 3.172 1.633 4.787 2.411.367.183.748.355 1.109.521.646.304 1.302.603 1.956.921a336.99 336.99 0 0 0 7.579 3.406c.544.232 1.068.466 1.607.693a262.106 262.106 0 0 0 8.845 3.574c.714.278 1.435.546 2.155.824a317.93 317.93 0 0 0 8.341 2.999c.356.122.698.232 1.049.348 3.076 1.047 6.18 2.013 9.308 2.959.745.213 1.495.445 2.245.657 3.182.93 6.323 2.037 9.61 2.628 208.458 36.9 269.01-121.604 269.01-121.604-50.853 64.315-141.126 81.282-226.656 62.392-3.242-.707-6.383-1.688-9.545-2.599-.804-.232-1.59-.464-2.382-.702a297.142 297.142 0 0 1-9.19-2.901c-.417-.142-.839-.293-1.263-.441-2.726-.93-5.419-1.91-8.105-2.917-.758-.293-1.516-.57-2.271-.865a258.534 258.534 0 0 1-8.75-3.533c-.597-.243-1.164-.5-1.747-.754a347.885 347.885 0 0 1-7.386-3.327c-.703-.333-1.412-.656-2.13-.995-1.917-.905-3.818-1.871-5.708-2.816-1.268-.647-2.557-1.264-3.81-1.937a229.457 229.457 0 0 1-6.842-3.726c-.769-.42-1.542-.82-2.313-1.251a323.248 323.248 0 0 1-8.912-5.303c-.81-.499-1.604-1.036-2.403-1.552a223.712 223.712 0 0 1-6.34-4.096c-.693-.444-1.364-.939-2.044-1.391a324.775 324.775 0 0 1-5.996-4.206c-.896-.643-1.784-1.31-2.656-1.952a263.416 263.416 0 0 1-5.409-4.105 298.313 298.313 0 0 1-2.412-1.877 314.038 314.038 0 0 1-6.737-5.505c-.232-.202-.484-.396-.737-.601a323.634 323.634 0 0 1-7.082-6.256c-.677-.627-1.333-1.233-1.995-1.865a200.614 200.614 0 0 1-5.088-4.839c-.667-.646-1.339-1.289-1.995-1.931a277.251 277.251 0 0 1-6.245-6.416c-.102-.106-.208-.202-.308-.318a247.273 247.273 0 0 1-6.333-6.998c-.56-.647-1.104-1.273-1.659-1.912a254.24 254.24 0 0 1-4.555-5.471c-.563-.657-1.122-1.34-1.675-2.018a315.733 315.733 0 0 1-5.266-6.806c-47.49-62.865-64.55-149.586-26.598-220.806"/><path d="M166.851 100.636c-31.174 43.548-29.48 101.834-5.164 147.891 4.078 7.72 8.662 15.208 13.79 22.343 4.669 6.497 9.845 14.228 16.042 19.444a187.38 187.38 0 0 0 6.996 7.049c.607.607 1.226 1.179 1.846 1.775a205.577 205.577 0 0 0 7.144 6.436c.101.082.19.177.292.242.026.03.051.042.067.071 2.708 2.302 5.505 4.52 8.346 6.699.63.465 1.255.956 1.894 1.436 2.846 2.119 5.75 4.208 8.729 6.189.088.061.164.121.253.192 1.312.875 2.654 1.698 3.982 2.543.641.405 1.248.835 1.891 1.213a182.145 182.145 0 0 0 6.469 3.849c.31.188.615.339.915.512a233.21 233.21 0 0 0 5.722 3.103c.67.37 1.352.688 2.035 1.032 1.325.673 2.651 1.354 4.002 2.013.195.092.406.181.602.263a195.38 195.38 0 0 0 8.349 3.771c.603.257 1.227.49 1.845.737 2.258.931 4.543 1.842 6.836 2.695.974.359 1.959.697 2.933 1.048 2.08.748 4.175 1.435 6.28 2.123.953.293 1.889.597 2.843.88 2.996.899 5.958 2.041 9.083 2.547 160.947 25.888 198.108-94.407 198.108-94.407-33.499 46.818-98.364 69.173-167.584 51.728a197.21 197.21 0 0 1-9.111-2.559c-.922-.271-1.828-.565-2.741-.859a191.406 191.406 0 0 1-6.377-2.133c-.967-.339-1.931-.682-2.878-1.036a222.586 222.586 0 0 1-6.864-2.689c-.617-.258-1.244-.486-1.849-.759a202.113 202.113 0 0 1-8.399-3.781c-1.419-.68-2.812-1.391-4.208-2.083-.808-.41-1.62-.814-2.429-1.219a198.307 198.307 0 0 1-5.332-2.918c-.414-.231-.849-.449-1.271-.698a208.005 208.005 0 0 1-6.453-3.821c-.657-.41-1.287-.851-1.942-1.265a251.013 251.013 0 0 1-4.182-2.685c-2.966-1.981-5.854-4.064-8.698-6.178-.656-.501-1.315-.992-1.959-1.492-30.301-23.223-54.312-54.959-65.73-90.939-11.966-37.323-9.39-79.208 11.342-113.205"/><path d="M279.384 62.782c-18.376 26.251-20.181 58.853-7.43 87.849 13.446 30.776 41 54.919 73.163 66.361 1.325.48 2.647.91 3.995 1.351.584.177 1.166.369 1.76.536 1.894.581 3.776 1.254 5.734 1.612 88.87 16.669 112.975-44.271 119.392-53.241-21.119 29.512-56.6 36.596-100.14 26.343-3.441-.82-7.223-2.022-10.535-3.166a130.77 130.77 0 0 1-12.511-5.041 130.694 130.694 0 0 1-21.934-12.99c-38.957-28.698-63.164-83.439-37.741-128.025"/></g></svg>