<svg xmlns="http://www.w3.org/2000/svg" width="400" height="400" viewBox="0 0 400 400"><g fill="#FFF"><path d="M208.307 389.882l-10.18-3.357s2.097-24.661-3.439-41.063c-.476-1.434.197-3.261 1.573-6.807 1.08-2.809 1.294-6.473 1.932-9.696 1.287-6.431 1.883-24.524 2.008-23.852.777 4.103.58 9.148.786 12.058.614 9.115 4.554 20.169 10.981 24.248 0 0-.786.688-2.816 8.566-3.351 12.894-.845 39.903-.845 39.903z"/><path d="M282.354 160.728c-19.959-87.959-67.109-116.87-72.188-127.915-5.57-7.809-11.188-21.655-11.188-21.655v.192c4.725 18.043 3.932 165.293 4.463 182.931 1.105 36.746-.008 71.978-2.146 99.268.409 20.195 3.269 41.935 13.292 46.544.001.001 88.52-58.287 67.767-179.365z"/><path d="M201.967 256.236L198.192 11.35c-.13-.491-.262-.938-.392-1.232-.573 7.768-.885 10.795-8.256 18.669-11.433 8.916-70.066 58.043-74.85 157.988-4.771 99.936 78.257 156.579 78.257 156.579 2.776-6.379 5.602-24.742 7.567-49.805-.41-19.369 1.449-37.313 1.449-37.313z"/></g></svg>