<?xml version="1.0" encoding="utf-8"?>
<!-- Generator: Adobe Illustrator 19.0.0, SVG Export Plug-In . SVG Version: 6.00 Build 0)  -->
<svg version="1.1" id="Layer_1" xmlns="http://www.w3.org/2000/svg" xmlns:xlink="http://www.w3.org/1999/xlink" x="0px" y="0px"
	 viewBox="0 0 500 500" style="enable-background:new 0 0 500 500;" xml:space="preserve">
<style type="text/css">
	.st0{fill:#FFFFFF;}
</style>
<g id="XMLID_1_">
	<path id="XMLID_3_" class="st0" d="M156.3,126.2c-12.1,0-23.8,2.4-34.4,6.7c-15.9,6.5-29.4,17.3-39.1,31
		c-4.8,6.9-8.7,14.5-11.3,22.6c-2.6,8.1-4,16.8-4,25.7c0,11.9,2.5,23.3,7.1,33.7c3.4,7.8,7.9,14.9,13.4,21.2
		c8.2,9.5,18.4,17.3,30,22.7c11.6,5.4,24.6,8.4,38.3,8.4v-15.2l-0.8,15.1c1.9,0.1,3.8,0.1,5.6,0.1c6.7,0,13-0.7,19.1-1.9
		c5.6-1.2,11-2.9,16-5.1c4.7-2,9.1-4.4,13.2-7.2c7.7-5.1,14.4-11.2,20.4-17.8c5.2-5.8,10-11.9,14.4-18.3
		c7.7-11.1,14.5-22.6,21.3-33.5c5.1-8.2,10.2-16.1,15.6-23.1c4-5.3,8.2-10.1,12.5-14.4c3.3-3.2,6.7-6,10.2-8.5
		c5.3-3.7,11-6.7,17.5-8.7c6.4-2,13.7-3.2,22.2-3.2c8.2,0,15.9,1.6,22.9,4.4c10.5,4.3,19.5,11.4,25.7,20.3c3.1,4.4,5.6,9.3,7.2,14.5
		c1.7,5.2,2.6,10.7,2.6,16.4c0,7.6-1.6,14.8-4.5,21.5c-2.2,5-5.1,9.6-8.6,13.7c-5.3,6.2-12.1,11.3-19.8,14.9
		c-7.7,3.6-16.3,5.6-25.5,5.6H343l-0.4,0c-1.4,0.1-2.7,0.1-4,0.1c-4.7,0-8.9-0.5-12.8-1.3c-3.7-0.8-7-1.8-10.2-3.2
		c-3-1.3-5.8-2.8-8.6-4.6c-5.1-3.4-10-7.7-14.6-12.8c-4.1-4.5-8-9.6-11.9-15.2c-6.8-9.8-13.4-20.9-20.4-32.2
		c-5.3-8.5-10.9-17.1-17.1-25.4c-4.7-6.2-9.8-12.2-15.5-17.8c-4.3-4.2-8.9-8.1-14-11.6c-7.6-5.3-16.1-9.7-25.7-12.8
		C178.1,127.8,167.6,126.2,156.3,126.2v30.3c5.3,0,10.1,0.5,14.6,1.3c4.2,0.8,8,1.9,11.6,3.4c6.7,2.7,12.7,6.4,18.4,11
		c4.9,4.1,9.6,8.9,14,14.3c3.9,4.7,7.6,9.9,11.3,15.4c6.4,9.6,12.6,20.1,19.2,30.6c4.9,7.9,10.1,15.8,15.9,23.3
		c4.3,5.6,9,11.1,14.2,16.1c3.9,3.8,8.1,7.3,12.6,10.5c6.8,4.8,14.4,8.8,22.9,11.5c8.5,2.7,17.7,4.2,27.7,4.2c1.8,0,3.7,0,5.6-0.1
		l-0.8-15.1v15.2c12.1,0,23.8-2.4,34.4-6.7c15.9-6.5,29.4-17.3,39.1-31c4.8-6.9,8.7-14.5,11.3-22.6c2.6-8.1,4-16.8,4-25.7
		c0-11.9-2.5-23.3-7.1-33.7c-3.4-7.8-7.9-14.9-13.4-21.2c-8.2-9.5-18.4-17.3-30-22.7c-11.6-5.4-24.6-8.4-38.3-8.4
		c-7.1,0-13.9,0.6-20.3,1.9c-6,1.1-11.7,2.8-17,4.9c-10,4-18.9,9.5-26.6,15.9c-6.8,5.6-12.7,11.9-18.1,18.4
		c-4.7,5.8-9,11.7-13.1,17.8c-7.1,10.6-13.4,21.4-19.7,31.4c-4.7,7.5-9.4,14.7-14.3,21c-3.6,4.8-7.3,9-11.2,12.8
		c-2.9,2.8-5.8,5.3-8.9,7.4c-4.6,3.2-9.4,5.7-14.8,7.4c-5.4,1.7-11.3,2.7-18.4,2.7c-1.3,0-2.6,0-4-0.1l-0.4,0h-0.4
		c-8.2,0-15.9-1.6-22.9-4.4c-10.5-4.3-19.5-11.4-25.7-20.3c-3.1-4.4-5.6-9.3-7.2-14.5c-1.7-5.2-2.6-10.7-2.6-16.4
		c0-7.6,1.6-14.8,4.5-21.4c2.2-5,5.1-9.6,8.6-13.7c5.3-6.2,12.1-11.3,19.8-14.9c7.7-3.6,16.3-5.6,25.5-5.6V126.2L156.3,126.2z"/>
	<polygon id="XMLID_4_" class="st0" points="335.3,229.7 335.3,213.1 318.9,213.1 318.9,206.2 335.3,206.2 335.3,189.7 342.3,189.7 
		342.3,206.2 358.8,206.2 358.8,213.1 342.3,213.1 342.3,229.7 	"/>
	<polygon id="XMLID_5_" class="st0" points="335.3,229.7 340.4,229.7 340.4,208 323.9,208 323.9,206.2 318.9,206.2 318.9,211.2 
		340.4,211.2 340.4,194.8 342.3,194.8 342.3,189.7 337.3,189.7 337.3,211.2 353.7,211.2 353.7,213.1 358.8,213.1 358.8,208 
		337.3,208 337.3,224.6 335.3,224.6 335.3,229.7 340.4,229.7 335.3,229.7 335.3,234.7 347.4,234.7 347.4,218.2 363.8,218.2 
		363.8,201.1 347.4,201.1 347.4,184.7 330.3,184.7 330.3,201.1 313.8,201.1 313.8,218.2 330.3,218.2 330.3,234.7 335.3,234.7 	"/>
	<path id="XMLID_8_" class="st0" d="M412.9,141v-6.9h-2.6v-1.2h6.6v1.2h-2.6v6.9H412.9z M417.8,141v-8h2l2,6.4l2-6.4h1.9v8h-1.2
		v-6.8l-2.1,6.8h-1.2l-2.2-6.9v6.9H417.8z"/>
	<path id="XMLID_11_" class="st0" d="M412.9,141h0.3v-7.1h-2.6v-0.7h6.1v0.7H414v6.9h-1.1V141h0.3H412.9v0.3h1.6v-6.9h2.6v-1.7h-7.1
		v1.7h2.6v6.9h0.3V141z M417.8,141h0.3v-7.8h1.5l2.2,7l2.1-7h1.5v7.5h-0.7v-6.5l-0.5-0.1l-2,6.6h-0.8l-2.1-6.7l-0.5,0.1v6.6h-1V141
		h0.3H417.8v0.3h1.5v-5.5l1.7,5.5h1.6l1.6-5.3v5.3h1.7v-8.6h-2.4l-1.8,5.8l-1.8-5.8h-2.4v8.6h0.3V141z"/>
	<path id="XMLID_14_" class="st0" d="M111.1,372.2l-3.3-11.4H86.9l-3.4,11.4H72.4l17.7-57.8h15.7l17.7,57.8H111.1z M97.5,325
		l-7.9,26.9h15.7L97.5,325z"/>
	<path id="XMLID_17_" class="st0" d="M111.1,372.2l0.6-0.2l-3.4-11.9H86.5l-3.4,11.4h-9.9L90.5,315h14.9l17.3,56.6h-11.6V372.2
		l0.6-0.2L111.1,372.2v0.6h13.3l-18.1-59H89.7l-18.1,59H84l3.4-11.4h20l3.3,11.4h0.5V372.2z M97.5,325l-0.6-0.2l-8.1,27.7h17.3
		l-8.6-29.7l-0.6,2L97.5,325l-0.6,0.2l7.6,26.1h-14l7.6-26.1L97.5,325l-0.6,0.2L97.5,325z"/>
	<path id="XMLID_20_" class="st0" d="M159.9,372.2l-8.4-18.6c-0.8-1.8-1.9-3.1-3.3-4c-1.4-0.9-3.1-1.3-5-1.3H141v23.9h-11.3v-57.8
		h17.4c3.3,0,6.3,0.3,9,0.8c2.7,0.5,5,1.5,6.9,2.7c1.9,1.3,3.3,2.9,4.4,5c1,2,1.5,4.5,1.5,7.5c0,2.1-0.3,4-1,5.7
		c-0.6,1.7-1.5,3.1-2.7,4.3c-1.2,1.2-2.5,2.2-4.1,2.9c-1.6,0.7-3.3,1.3-5.2,1.5c1.5,0.3,2.8,1.1,4,2.4c1.2,1.3,2.4,3.2,3.7,5.7
		l9.6,19.4H159.9z M157.1,331.4c0-2.8-0.9-4.9-2.8-6.1c-1.9-1.2-4.7-1.9-8.4-1.9H141v16.3h4.6c1.7,0,3.3-0.2,4.7-0.5
		c1.4-0.4,2.6-0.9,3.6-1.6c1-0.7,1.8-1.6,2.3-2.6C156.8,334,157.1,332.8,157.1,331.4L157.1,331.4z"/>
	<path id="XMLID_23_" class="st0" d="M159.9,372.2l0.6-0.3l-8.4-18.6l0,0c-0.8-1.9-2-3.3-3.5-4.3c-1.5-1-3.3-1.4-5.3-1.4l0,0l0,0
		h-2.8v23.9h-10V315h16.8h0c3.3,0,6.2,0.3,8.8,0.8c2.6,0.5,4.8,1.4,6.7,2.6c1.8,1.2,3.2,2.8,4.2,4.7c1,1.9,1.5,4.3,1.5,7.2l0,0
		c0,2-0.3,3.8-0.9,5.4c-0.6,1.6-1.5,2.9-2.6,4.1c-1.1,1.1-2.4,2.1-4,2.8c-1.5,0.7-3.2,1.2-5.1,1.5l0,1.2c1.3,0.3,2.5,1,3.7,2.2
		c1.2,1.2,2.4,3.1,3.6,5.5l9.1,18.5h-12.3V372.2l0.6-0.3L159.9,372.2v0.6h14.2l-10-20.3l0,0c-1.2-2.5-2.5-4.5-3.8-5.8
		c-1.3-1.4-2.7-2.3-4.4-2.6l-0.1,0.6l0.1,0.6c1.9-0.3,3.7-0.8,5.4-1.6c1.7-0.8,3.1-1.8,4.3-3c1.2-1.3,2.2-2.8,2.8-4.5
		c0.7-1.7,1-3.7,1-5.8v0c0-3-0.5-5.6-1.6-7.8c-1.1-2.1-2.6-3.9-4.6-5.2c-2-1.3-4.3-2.3-7.1-2.8c-2.7-0.6-5.8-0.8-9.1-0.8l0,0h-18v59
		h12.5v-23.9h1.5h0h0c1.8,0,3.4,0.4,4.7,1.3c1.3,0.8,2.3,2.1,3.1,3.7l0,0l8.6,18.9h0.4V372.2z M157.1,331.4h0.6
		c0-1.5-0.2-2.8-0.8-3.9c-0.5-1.1-1.3-2-2.3-2.7c-2-1.3-4.9-2-8.7-2h-5.6v17.5h5.2h0c1.8,0,3.4-0.2,4.9-0.5c1.5-0.4,2.8-0.9,3.8-1.7
		c1.1-0.8,1.9-1.7,2.5-2.8c0.6-1.1,0.9-2.5,0.9-3.9v-0.1l-0.1-0.1L157.1,331.4h0.6H157.1l-0.5,0.3l0,0L157.1,331.4h-0.6
		c0,1.3-0.3,2.4-0.8,3.3c-0.5,1-1.2,1.8-2.1,2.4c-0.9,0.7-2.1,1.2-3.4,1.5c-1.4,0.3-2.9,0.5-4.6,0.5l0,0h-4V324h4.3
		c3.7,0,6.3,0.6,8,1.8c0.8,0.6,1.5,1.3,1.9,2.2c0.4,0.9,0.6,2,0.6,3.4v0.1l0.1,0.1L157.1,331.4z"/>
	<path id="XMLID_26_" class="st0" d="M224.6,342.5c0,4.5-0.6,8.6-1.7,12.2c-1.1,3.7-2.9,6.8-5.4,9.4c-2.4,2.6-5.5,4.6-9.3,6
		c-3.8,1.4-8.3,2.1-13.6,2.1h-15.2v-57.8h17.7c4.6,0,8.6,0.6,12,1.7c3.4,1.1,6.3,2.8,8.6,5.1c2.3,2.3,4,5.2,5.2,8.8
		C224,333.4,224.6,337.6,224.6,342.5L224.6,342.5z M212.5,343.3c0-3.1-0.3-5.9-0.8-8.4c-0.5-2.4-1.4-4.5-2.6-6.2
		c-1.2-1.7-2.9-3-5-3.9c-2.1-0.9-4.7-1.3-7.7-1.3h-5.7v39.6h4.9c5.5,0,9.7-1.6,12.6-4.8C211.1,355.1,212.5,350.1,212.5,343.3
		L212.5,343.3z"/>
	<path id="XMLID_29_" class="st0" d="M224.6,342.5H224c0,4.4-0.6,8.4-1.7,12c-1.1,3.6-2.9,6.6-5.2,9.1c-2.4,2.5-5.4,4.4-9.1,5.8
		c-3.7,1.4-8.2,2.1-13.4,2.1H180V315h17.1c4.5,0,8.5,0.5,11.8,1.6c3.4,1.1,6.1,2.7,8.3,5c2.2,2.2,3.9,5.1,5,8.5
		c1.1,3.5,1.7,7.6,1.7,12.5H224.6l0.4-0.4l0,0l-1-1v1.5H224.6l-0.4,0.4l0,0l1,1l0-1.5c0-4.9-0.6-9.2-1.7-12.8
		c-1.2-3.6-2.9-6.6-5.3-9c-2.4-2.4-5.3-4.1-8.8-5.3c-3.5-1.1-7.6-1.7-12.2-1.7h-18.3v59h15.8c5.3,0,9.9-0.7,13.8-2.1
		c3.9-1.4,7.1-3.5,9.5-6.1c2.5-2.7,4.3-5.9,5.5-9.6c1.2-3.7,1.7-7.9,1.7-12.4H224.6l-0.4,0.4L224.6,342.5z M212.5,343.3l0.6,0v0
		c0-3.2-0.3-6-0.8-8.5c-0.5-2.5-1.4-4.7-2.7-6.4c-1.3-1.8-3.1-3.2-5.2-4.1c-2.2-0.9-4.8-1.4-8-1.4h-6.3v40.8h5.6h0.1
		c2.8,0,5.3-0.4,7.5-1.2c2.2-0.8,4-2.1,5.5-3.7c1.5-1.7,2.6-3.8,3.3-6.3c0.7-2.5,1.1-5.5,1.1-8.9c0-0.1,0-0.1,0-0.2H212.5v0.6l0,0
		h0.6l0-0.6L212.5,343.3v-0.6l0,0h-0.6l0,0.6c0,0.1,0,0.1,0,0.2c0,3.3-0.4,6.2-1.1,8.6c-0.7,2.4-1.7,4.3-3.1,5.8
		c-1.4,1.5-3,2.7-5,3.4c-2,0.8-4.3,1.2-7,1.2l-0.1,0h-4.3v-38.4h5.1c3,0,5.5,0.4,7.5,1.3c2,0.8,3.5,2.1,4.7,3.7c1.2,1.6,2,3.6,2.5,6
		c0.5,2.4,0.8,5.1,0.8,8.2v0L212.5,343.3v-0.6V343.3z"/>
	<path id="XMLID_30_" class="st0" d="M274.7,350.9c0,3.7-0.5,6.9-1.5,9.7s-2.5,5.1-4.4,7c-1.9,1.9-4.2,3.3-7,4.2
		c-2.7,0.9-5.8,1.4-9.2,1.4c-3.8,0-7.1-0.5-9.9-1.4c-2.7-0.9-5-2.3-6.7-4.1c-1.7-1.8-2.9-3.9-3.7-6.5c-0.8-2.5-1.1-5.4-1.1-8.5
		v-38.4h11.3v37.7c0,1.9,0.2,3.7,0.5,5.2c0.4,1.5,1,2.8,1.8,3.8c0.9,1,2,1.8,3.3,2.4c1.3,0.5,3,0.8,4.9,0.8c1.9,0,3.4-0.2,4.7-0.7
		c1.3-0.5,2.4-1.2,3.2-2.2c0.9-1,1.5-2.3,1.9-3.9c0.4-1.6,0.6-3.5,0.6-5.8v-37.3h11.3V350.9z"/>
	<path id="XMLID_31_" class="st0" d="M274.7,350.9l-0.6,0v0c0,3.6-0.5,6.8-1.5,9.5c-1,2.7-2.4,5-4.2,6.7c-1.8,1.8-4.1,3.1-6.8,4.1
		c-2.7,0.9-5.7,1.4-9.1,1.4c-3.8,0-7-0.5-9.7-1.4c-2.7-0.9-4.8-2.2-6.4-3.9c-1.6-1.7-2.8-3.8-3.6-6.2c-0.7-2.5-1.1-5.3-1.1-8.4V315
		h10v37.1v0v0c0,2,0.2,3.7,0.5,5.3c0.4,1.6,1,3,2,4.1c0.9,1.1,2.1,2,3.5,2.5c1.4,0.6,3.1,0.8,5.2,0.8c1.9,0,3.5-0.2,4.9-0.7
		c1.4-0.5,2.5-1.3,3.5-2.4c0.9-1.1,1.6-2.5,2-4.1c0.4-1.7,0.7-3.6,0.7-6h-0.4l0.4,0v0h-0.4l0.4,0v0V315h10v35.9v0L274.7,350.9h0.6
		v-37.2h-12.5v37.9h0.6l-0.6,0l0,0c0,2.2-0.2,4.1-0.6,5.6c-0.4,1.5-1,2.7-1.8,3.7c-0.8,0.9-1.8,1.6-2.9,2c-1.2,0.4-2.7,0.7-4.5,0.7
		c-1.9,0-3.5-0.3-4.7-0.8c-1.2-0.5-2.2-1.2-3-2.2c-0.8-1-1.4-2.2-1.7-3.6c-0.3-1.4-0.5-3.1-0.5-5v0l0,0v-38.3h-12.5v39
		c0,3.2,0.4,6.1,1.2,8.7c0.8,2.6,2.1,4.9,3.9,6.7c1.8,1.8,4.1,3.3,6.9,4.2c2.8,1,6.2,1.4,10.1,1.4c3.5,0,6.6-0.5,9.4-1.4
		c2.8-1,5.2-2.4,7.2-4.3c2-1.9,3.5-4.3,4.5-7.2c1-2.9,1.6-6.2,1.6-9.9l0,0v0H274.7z"/>
	<polygon id="XMLID_32_" class="st0" points="285.6,323.3 285.6,314.4 323.4,314.4 323.4,323.3 310.3,323.3 310.3,363.2 
		323.4,363.2 323.4,372.2 285.6,372.2 285.6,363.2 298.8,363.2 298.8,323.3 	"/>
	<polygon id="XMLID_33_" class="st0" points="285.6,323.3 286.2,323.3 286.2,315 322.8,315 322.8,322.6 309.7,322.6 309.7,363.8 
		322.8,363.8 322.8,371.6 286.2,371.6 286.2,363.8 299.4,363.8 299.4,322.6 285.6,322.6 285.6,323.3 286.2,323.3 285.6,323.3 
		285.6,323.9 298.2,323.9 298.2,362.6 285,362.6 285,372.8 324,372.8 324,362.6 310.9,362.6 310.9,323.9 324,323.9 324,313.8 
		285,313.8 285,323.9 285.6,323.9 	"/>
	<polygon id="XMLID_34_" class="st0" points="364.3,372.2 348.3,337.7 345,330.2 345,354.2 345,372.2 334.7,372.2 334.7,314.4 
		348.5,314.4 364.9,349.1 367.8,355.9 367.8,330.3 367.8,314.4 378,314.4 378,372.2 	"/>
	<polygon id="XMLID_35_" class="st0" points="364.3,372.2 364.8,371.9 348.8,337.4 345.5,330 344.4,330.2 344.4,354.2 344.4,371.6 
		335.3,371.6 335.3,315 348.1,315 364.3,349.3 367.2,356.1 368.4,355.9 368.4,330.3 368.4,315 377.4,315 377.4,371.6 364.3,371.6 
		364.3,372.2 364.8,371.9 364.3,372.2 364.3,372.8 378.6,372.8 378.6,313.8 367.1,313.8 367.1,330.3 367.1,352.9 365.4,348.8 
		348.9,313.8 334.1,313.8 334.1,372.8 345.6,372.8 345.6,354.2 345.6,333.1 347.7,337.9 363.9,372.8 364.3,372.8 	"/>
	<path id="XMLID_38_" class="st0" d="M431.9,343c0,5.3-0.6,9.8-1.9,13.6s-3,6.9-5.2,9.4c-2.2,2.4-4.8,4.3-7.8,5.4
		c-3,1.2-6.2,1.8-9.5,1.8c-7.9,0-13.8-2.5-17.8-7.6c-4-5.1-6-12.4-6-22.1c0-5.3,0.6-9.8,1.9-13.6c1.3-3.8,3-6.9,5.2-9.4
		c2.2-2.4,4.8-4.3,7.8-5.4c3-1.2,6.2-1.8,9.5-1.8c7.9,0,13.8,2.5,17.8,7.6C429.9,326,431.9,333.4,431.9,343z M420,343.6
		c0-6.8-0.9-11.9-2.8-15.3c-1.9-3.4-5-5-9.3-5c-2.2,0-4,0.4-5.5,1.3c-1.5,0.9-2.8,2.1-3.8,3.8c-1,1.7-1.7,3.8-2.2,6.2
		c-0.5,2.5-0.7,5.3-0.7,8.5c0,6.8,1,11.9,2.9,15.3s5,5,9.3,5c2.2,0,4-0.4,5.6-1.3c1.5-0.9,2.8-2.1,3.8-3.8c1-1.7,1.7-3.8,2.2-6.2
		C419.8,349.6,420,346.7,420,343.6L420,343.6z"/>
	<path id="XMLID_41_" class="st0" d="M431.9,343h-0.6c0,5.2-0.6,9.7-1.9,13.4c-1.2,3.7-2.9,6.8-5.1,9.2c-2.2,2.4-4.7,4.1-7.6,5.3
		c-2.9,1.2-6,1.7-9.3,1.7c-3.9,0-7.2-0.6-10.1-1.8c-2.9-1.2-5.3-3.1-7.2-5.5c-3.9-4.9-5.8-12.1-5.8-21.7c0-5.2,0.6-9.7,1.9-13.4
		c1.2-3.7,2.9-6.8,5.1-9.2c2.2-2.4,4.7-4.1,7.6-5.3c2.9-1.2,6-1.7,9.3-1.7c3.9,0,7.2,0.6,10.1,1.8c2.9,1.2,5.3,3,7.2,5.5
		c3.8,4.9,5.8,12,5.8,21.6c0,0.1,0,0.1,0,0.2L431.9,343l0.6,0c0-0.1,0-0.1,0-0.2c0-9.7-2-17.1-6.1-22.3c-2-2.6-4.6-4.6-7.7-5.9
		c-3.1-1.3-6.6-1.9-10.6-1.9c-3.5,0-6.7,0.6-9.8,1.8c-3.1,1.2-5.7,3.1-8,5.6c-2.3,2.5-4.1,5.7-5.3,9.6c-1.3,3.9-1.9,8.5-1.9,13.8
		c0,9.7,2,17.2,6.1,22.4c2,2.6,4.6,4.6,7.7,5.9c3.1,1.3,6.6,1.9,10.6,1.9c3.5,0,6.7-0.6,9.8-1.8c3.1-1.2,5.7-3.1,8-5.6
		c2.3-2.5,4.1-5.7,5.3-9.6c1.3-3.9,1.9-8.5,1.9-13.8H431.9z M420,343.6h0.6c0-6.9-0.9-12.1-2.9-15.6c-1-1.8-2.3-3.1-4-4
		c-1.7-0.9-3.6-1.3-5.9-1.3c-2.2,0-4.2,0.5-5.8,1.4c-1.6,0.9-3,2.3-4,4c-1,1.8-1.8,3.9-2.2,6.4c-0.5,2.5-0.7,5.4-0.7,8.6
		c0,6.9,0.9,12.1,2.9,15.6c1,1.8,2.3,3.1,4,4c1.7,0.9,3.6,1.3,5.8,1.3c2.2,0,4.2-0.5,5.9-1.4c1.6-0.9,3-2.3,4-4.1
		c1-1.8,1.8-3.9,2.2-6.4c0.5-2.5,0.7-5.4,0.7-8.6v-0.4l-0.3-0.2L420,343.6h0.6H420l-0.3,0.5h0L420,343.6h-0.6c0,3.2-0.2,5.9-0.7,8.4
		c-0.4,2.4-1.1,4.4-2.1,6c-0.9,1.6-2.1,2.8-3.6,3.6c-1.4,0.8-3.2,1.2-5.3,1.2c-2.1,0-3.8-0.4-5.3-1.2c-1.4-0.8-2.6-2-3.5-3.5
		c-1.8-3.2-2.8-8.2-2.8-15c0-3.2,0.2-5.9,0.7-8.4c0.4-2.4,1.2-4.4,2.1-6c0.9-1.6,2.1-2.8,3.6-3.6c1.4-0.8,3.2-1.2,5.2-1.2
		c2.1,0,3.8,0.4,5.3,1.2c1.5,0.8,2.6,2,3.5,3.5c1.8,3.2,2.8,8.2,2.8,15v0.4l0.3,0.2L420,343.6z"/>
	<rect id="XMLID_42_" x="137.6" y="206.9" class="st0" width="42.1" height="5.6"/>
	<polygon id="XMLID_43_" class="st0" points="137.6,212.5 143.6,212.5 143.6,206.9 137.6,206.9 137.6,212.9 179.7,212.9 
		179.7,206.9 173.8,206.9 173.8,212.5 179.7,212.5 179.7,206.5 137.6,206.5 137.6,212.5 143.6,212.5 137.6,212.5 137.6,218.5 
		185.7,218.5 185.7,200.9 131.6,200.9 131.6,218.5 137.6,218.5 	"/>
</g>
</svg>
