<svg xmlns="http://www.w3.org/2000/svg" width="400" height="400" viewBox="0 0 400 400"><g fill="#FFF"><path d="M233.635 222.768c-6.047-5.083-15.183-7.621-27.399-7.621h-35.403v60.814h35.403c12.109 0 21.191-2.538 27.239-7.622 6.169-5.084 9.242-12.752 9.242-23.019 0-10.052-3.012-17.568-9.082-22.552zm-7.814-54.591c4.894-4.136 7.34-10.26 7.34-18.355 0-7.981-2.446-14.043-7.34-18.195-4.923-4.25-12.124-6.375-21.63-6.375h-33.367V174.4h33.367c9.506-.001 16.707-2.072 21.63-6.223z"/><path d="M327.322 13.025H75.448c-33.194 0-60.107 26.994-60.107 60.302V327.57c0 33.301 26.914 60.303 60.107 60.303h251.874c33.201 0 60.104-27.002 60.104-60.303V73.327c0-33.308-26.903-60.302-60.104-60.302zm-47.161 287.193c-15.244 11.001-38.423 16.475-69.545 16.475h-100.09V84.504h90.534c32.467 0 55.968 4.877 70.484 14.617 14.625 9.754 21.934 25.35 21.934 46.816 0 11.299-2.668 20.939-7.997 28.928-5.32 7.882-13.057 13.738-23.179 17.568 12.95 3.738 22.98 10.626 30.075 20.687 7.109 10.068 10.642 22.399 10.642 37.017.015 22.399-7.607 39.095-22.858 50.081z"/></g></svg>