<svg xmlns="http://www.w3.org/2000/svg" width="400" height="400" viewBox="0 0 400 400"><path fill="#FFF" d="M349.116 352.191L380.833 8.508 381.249 4H23.751l.416 4.508L55.85 352.247l.264 2.866 2.854.766 142.181 38.18h2.279l142.568-38.236 2.854-.766.266-2.866zM202.792 80.044h103.895l-3.127 35.169-102.493 44.074 1.726 7.93h96.187l-11.071 122.721-85.462 22.921-85.435-22.881-5.425-58.774h35.179l2.819 29.799.273 2.889 2.895.744 48.951 12.579 2.23-.016 48.388-13.01 2.881-.775.254-2.873 4.837-55.038.396-4.492H108.697l-3.202-35.321 98.976-40.978 7.025-2.912-1.677-7.962H100.984l-3.101-33.793H202.35l.442-.001z"/></svg>