<?xml version="1.0" encoding="iso-8859-1"?>
<!-- Generator: Adobe Illustrator 19.0.0, SVG Export Plug-In . SVG Version: 6.00 Build 0)  -->
<svg xmlns="http://www.w3.org/2000/svg" xmlns:xlink="http://www.w3.org/1999/xlink" version="1.1" id="Layer_1" x="0px" y="0px" viewBox="0 0 512 512" style="enable-background:new 0 0 512 512;" xml:space="preserve" width="512px" height="512px">
<g>
	<g>
		<g>
			<path d="M503.467,187.733H460.8v-76.8c0-0.089-0.011-0.176-0.013-0.265c-0.004-0.111-0.009-0.222-0.017-0.333     c-0.024-0.343-0.063-0.682-0.126-1.012c-0.004-0.022-0.006-0.044-0.01-0.066c-0.075-0.376-0.18-0.739-0.302-1.095     c-0.022-0.065-0.047-0.128-0.07-0.192c-0.129-0.349-0.275-0.689-0.447-1.014c-0.005-0.009-0.008-0.018-0.013-0.027     c-0.182-0.342-0.391-0.667-0.617-0.979c-0.039-0.055-0.08-0.108-0.121-0.162c-0.246-0.324-0.508-0.634-0.796-0.92L355.934,2.535     c-0.287-0.291-0.6-0.554-0.926-0.801c-0.051-0.038-0.101-0.077-0.152-0.114c-0.627-0.454-1.318-0.821-2.058-1.092     c-0.044-0.016-0.088-0.033-0.132-0.048c-0.713-0.248-1.467-0.402-2.252-0.451c-0.077-0.005-0.154-0.009-0.232-0.012     C350.077,0.012,349.974,0,349.867,0H59.733C55.014,0,51.2,3.823,51.2,8.533v179.2H8.533c-4.719,0-8.533,3.823-8.533,8.533v204.8     c0,4.71,3.814,8.533,8.533,8.533H51.2v93.867c0,4.71,3.814,8.533,8.533,8.533h392.533c4.719,0,8.533-3.823,8.533-8.533V409.6     h42.667c4.719,0,8.533-3.823,8.533-8.533v-204.8C512,191.556,508.186,187.733,503.467,187.733z M358.4,29.133l73.267,73.267     H358.4V29.133z M68.267,17.067h273.067v93.867c0,4.71,3.814,8.533,8.533,8.533h93.867v68.267H68.267V17.067z M443.733,494.933     H68.267V409.6h375.467V494.933z M494.933,392.533H17.067V204.8h477.867V392.533z" fill="#FFFFFF"/>
			<path d="M315.733,221.867H281.6c-4.719,0-8.533,3.823-8.533,8.533v68.267v68.267c0,4.71,3.814,8.533,8.533,8.533     c4.719,0,8.533-3.823,8.533-8.533V307.2h25.6c18.825,0,34.133-15.309,34.133-34.133V256     C349.867,237.175,334.558,221.867,315.733,221.867z M332.8,273.067c0,9.412-7.654,17.067-17.067,17.067h-25.6v-51.2h25.6     c9.412,0,17.067,7.654,17.067,17.067V273.067z" fill="#FFFFFF"/>
			<path d="M59.776,221.867H42.667c-4.719,0-8.533,3.823-8.533,8.533v136.533c0,4.71,3.814,8.533,8.533,8.533h17.109     c32.913,0,59.691-26.778,59.691-59.699v-34.202C119.467,248.644,92.689,221.867,59.776,221.867z M102.4,315.768     c0,23.509-19.123,42.633-42.624,42.633H51.2V238.933h8.576c23.501,0,42.624,19.123,42.624,42.633V315.768z" fill="#FFFFFF"/>
			<path d="M179.2,238.933c4.719,0,8.533-3.823,8.533-8.533s-3.814-8.533-8.533-8.533h-42.667c-4.719,0-8.533,3.823-8.533,8.533     v136.533c0,4.71,3.814,8.533,8.533,8.533H179.2c4.719,0,8.533-3.823,8.533-8.533s-3.814-8.533-8.533-8.533h-34.133v-51.2H179.2     c4.719,0,8.533-3.823,8.533-8.533s-3.814-8.533-8.533-8.533h-34.133v-51.2H179.2z" fill="#FFFFFF"/>
			<path d="M256,358.4h-42.667v-128c0-4.71-3.814-8.533-8.533-8.533s-8.533,3.823-8.533,8.533v136.533     c0,4.71,3.814,8.533,8.533,8.533H256c4.719,0,8.533-3.823,8.533-8.533S260.719,358.4,256,358.4z" fill="#FFFFFF"/>
			<path d="M469.333,375.467c4.719,0,8.533-3.823,8.533-8.533v-102.4c0-4.71-3.814-8.533-8.533-8.533s-8.533,3.823-8.533,8.533     v102.4C460.8,371.644,464.614,375.467,469.333,375.467z" fill="#FFFFFF"/>
			<path d="M443.733,221.867c-4.719,0-8.533,3.823-8.533,8.533v59.733h-59.733V230.4c0-4.71-3.814-8.533-8.533-8.533     s-8.533,3.823-8.533,8.533v136.533c0,4.71,3.814,8.533,8.533,8.533s8.533-3.823,8.533-8.533V307.2H435.2v59.733     c0,4.71,3.814,8.533,8.533,8.533c4.719,0,8.533-3.823,8.533-8.533V230.4C452.267,225.69,448.452,221.867,443.733,221.867z" fill="#FFFFFF"/>
			<path d="M469.333,238.933c4.719,0,8.533-3.823,8.533-8.533s-3.814-8.533-8.533-8.533s-8.533,3.823-8.533,8.533     S464.614,238.933,469.333,238.933z" fill="#FFFFFF"/>
		</g>
	</g>
</g>
<g>
</g>
<g>
</g>
<g>
</g>
<g>
</g>
<g>
</g>
<g>
</g>
<g>
</g>
<g>
</g>
<g>
</g>
<g>
</g>
<g>
</g>
<g>
</g>
<g>
</g>
<g>
</g>
<g>
</g>
</svg>
