<svg xmlns="http://www.w3.org/2000/svg" width="400" height="400" viewBox="0 0 400 400"><path fill="#FFF" d="M232.629 273.479c36.829-4.349 76.001-17.74 76.001-81.353 0-18.08-6.366-32.814-16.737-44.2 1.674-4.349 7.025-20.756-2.018-43.52 0 0-13.393-4.354-44.858 16.736-13.391-3.679-28.12-6.026-41.847-6.026-14.067 0-28.801 2.348-41.858 6.026-31.806-21.09-45.198-16.736-45.198-16.736-9.037 22.763-3.678 39.171-2.006 43.52-10.38 11.384-16.742 26.12-16.742 44.2 0 63.612 39.171 77.004 76 81.353-4.684 4.025-9.037 11.72-10.71 22.435-9.378 4.015-33.819 11.718-48.548-13.727 0 0-8.708-15.731-25.11-16.736 0 0-16.407-.333-1.338 10.036 0 0 11.044 5.028 18.415 24.106 0 0 10.04 31.812 56.241 21.766v28.455c0 4.359-3.345 9.377-11.713 8.038-65.625-21.764-112.83-84.039-112.83-157.022 0-91.404 73.987-165.391 165.397-165.391 91.065 0 165.393 73.987 165.057 165.391 0 72.983-47.21 134.926-112.829 157.022-8.373 1.674-11.719-3.344-11.719-8.038v-45.861c0-15.409-5.029-25.444-11.05-30.474zM392 201.17C392 96.704 307.292 12 203.17 12 98.703 12 14 96.704 14 201.17 14 305.293 98.703 390 203.17 390 307.292 390 392 305.293 392 201.17z"/></svg>