<svg xmlns="http://www.w3.org/2000/svg" width="512" height="512" viewBox="0 0 512 512"><path fill="#FFF" d="M346.208 490.119l5.549-80.791 15.32-22.854s-34.869 12.465-93.248 12.465c-58.378 0-92.72-12.234-92.72-12.234l17.17 24.93 6.074 78.484c0 8.414 31.754 15.234 70.928 15.234 39.172.001 70.927-6.82 70.927-15.234m-17.502-377.284l11.646-40.226 64.494-59.302L387.848.656l-68.28 63.171-13.521 48.059a1040.177 1040.177 0 0 0-30.543-.443c-71.913 0-130.209 7.162-130.209 15.995s58.296 15.993 130.209 15.993c71.91 0 130.205-7.16 130.205-15.993 0-6.505-31.616-12.104-77.003-14.603"/><path fill="#FFF" d="M321.932 135.362s-2.521.494-9.941.522c-7.422.027-12.691-.041-14.791-1.712-.563-.449-.872-1.339-.87-1.942.007-1.148.938-1.824 2.128-2.248l1.123 1.541c-.488.147-.768.321-.769.508-.005.871 7.588 1.468 13.395 1.403 5.809-.062 12.827-.48 12.834-1.339 0-.261-.532-.505-1.456-.699l1.119-1.53c1.506.409 2.818 1.198 2.816 2.563-.015 2.321-3.396 2.674-5.588 2.933M404.72 13.425c1.622-1.637-.839-5.823-5.497-9.349-4.657-3.525-9.75-5.057-11.375-3.42-1.622 1.637.84 5.823 5.499 9.348 4.657 3.525 9.75 5.058 11.373 3.421m-61.613 279.354c-1.529-12.853 32.166-31.463 23.519-32.059-18.615.929-27.88 19.063-37.247 38.056-3.432 6.96-15.176 36.642-22.879 32.987-7.701-3.653 9.982-28.06 14.94-42.554-5.721 3.663-26.693 17.904-32.101 4.567-8.689 6.45-27.261 9.945-25.165-6.997-4.623 7.157-15 17.146-27.454 12.996-16.357-5.452 9.477-50.98 15.901-48.684 6.424 2.296-1.296 12.668-3.32 16.695-4.446 8.863-9.585 20.006-6.152 22.287 5.88 3.908 21.881-14.784 22.236-15.195 2.993-3.454 11.519-26.056 18.39-23.461 6.872 2.596-17.14 32.438-8.162 38.361 1.811 1.195 9.22-.738 13.726-4.999 2.917-2.756 1.913-8.86 11.635-29.116 9.719-20.255 18.382-45.479 25.047-43.558 6.667 1.921 1.172 14.867-1.219 19.694-11.223 22.651-30.627 60.073-21.477 57.24 9.152-2.832 13.918-2.999 22.879-12.161 8.962-9.164 8.548-24.258 14.522-23.938 5.974.322 4.971 5.162 3.522 8.847 5.879-5.879 27.867-18.26 33.175-5.998 6.287 14.518-31.459 35.486-22.047 34.418 9.176-1.043 24.042-9.271 30.389-16.752l17.471-137.251s-17.579 12.713-129.425 12.713c-111.847 0-127.607-12.448-127.607-12.448l14.873 125.278c7.896-19.608 26.643-59.269 56.194-57.938 13.443.605 31.389 23.224 16.018 23.991-6.507.323-7.167-11.289-14.872-12.996-5.561-1.231-13.302 2.719-18.303 6.998-9.977 8.532-31.435 42.195-28.6 58.979 3.613 21.396 33.789-7.436 38.895-15.995 3.596-6.03 6.026-23.895 13.89-22.021 7.866 1.875-.687 20.311-6.387 36.612-6.405 18.303-9.771 37.61-17.799 35.389-8.027-2.219 5.048-25.848 4.575-29.988-7.544 6.084-21.444 21.484-39.229 13.862l9.238 77.796s24.551 16.951 98.508 16.951c73.958 0 99.418-16.687 99.418-16.687l11.47-90.107c-9.383 7.99-39.085 22.17-40.986 6.186"/></svg>