<svg xmlns="http://www.w3.org/2000/svg" width="400" height="400" viewBox="0 0 400 400"><g fill="#FFF"><path d="M146.394 139.176c-8.209 0-14.006.726-17.144 1.443v55.066c3.62.958 8.452 1.204 14.488 1.204 22.218 0 35.734-10.868 35.734-29.949 0-18.108-12.551-27.764-33.078-27.764z"/><path d="M10.304 9.107V388.5h379.393V9.107H10.304zM195.18 202.678c-11.833 11.841-30.431 17.383-51.441 17.383-5.546 0-10.621-.238-14.488-.957v61.334H99.792V119.856c10.625-1.93 25.356-3.381 45.401-3.381 21.736 0 37.672 4.592 48.057 13.276 9.66 7.966 15.936 20.764 15.936 35.985-.008 15.453-4.832 28.251-14.006 36.942zm57.216 80.168c-14.233 0-27.031-3.373-35.738-8.205l5.789-21.497c6.762 4.122 19.56 8.444 30.188 8.444 13.037 0 18.826-5.311 18.826-13.029 0-7.966-4.816-12.072-19.297-17.144-22.956-7.974-32.62-20.539-32.373-34.287 0-20.763 17.151-36.95 44.43-36.95 13.044 0 24.391 3.381 31.152 7.001l-5.797 21.011c-5.071-2.895-14.487-6.762-24.861-6.762-10.637 0-16.426 5.071-16.426 12.327 0 7.487 5.558 11.1 20.539 16.411 21.25 7.733 31.146 18.594 31.393 35.992 0 21.235-16.673 36.688-47.825 36.688z"/></g></svg>