<svg xmlns="http://www.w3.org/2000/svg" width="400" height="400" viewBox="0 0 400 400"><path fill="#FFF" d="M169.309 9.387l-.018-.008c.599.069.711.321 1.787 4.211 1.813 6.544 5.083 15.56 8.482 23.4 4.398 10.126 11.953 25.083 18.813 37.169l1.241 2.229c12.541 1.956 27.911 4.566 34.938 5.958 37.277 7.416 66.784 17.304 89.509 30.031 16.564 9.273 30.078 20.544 41.241 34.352 3.824 4.727 6.989 9.194 11.631 16.423l.832 1.28-5.326.797c-34.188 5.244-85.779 17.815-132.457 31.693.033.425.12.975.225 1.562 1.474 8.339 2.359 16.83 2.905 27.254.321 6.405.174 25.271-.26 30.926-1.535 20.183-3.878 37.2-6.914 49.958-5.021 21.077-14.344 45.762-27.233 72.086-3.781 7.736-7.061 13.937-7.528 14.249-.251.174-5.916.166-10.166 0-20.972-.797-59.047-6.211-78.745-11.189-11.817-2.982-27.602-8.256-36.943-12.366-18.315-8.059-34.044-19.888-41.958-31.537-6.188-9.107-7.771-18.96-4.558-28.718 1.787-5.42 5.941-12.463 11.254-19.072 3.569-4.44 10.542-11.362 15.244-15.108.229-.184.495-.417.736-.6l-.48.165c39.338-32.344 64.808-61.403 76.898-87.77 6.738-14.709 9.515-27.364 9.15-41.763-.582-22.433-6.809-38.705-21.108-55.218-3.161-3.647-28.981-28.818-28.981-28.818-2.458-2.372-4.67-4.61-5.416-6.475a7.054 7.054 0 0 1-.507-2.203l-.096-.1c0-.477.061-.941.16-1.366.044-.23.096-.425.157-.604a.731.731 0 0 0 .039-.064c.147-.443.317-.704.317-.704.008.04.03.066.039.101 1.205-1.847 4.626-5.179 7.424-7.143 8.596-6.037 22.56-13.045 40.514-20.339 13.253-5.377 33.886-12.806 35.162-12.654v-.025zm-1.006 2.958c-1.578.286-23.418 9.372-31.433 13.101-6.246 2.901-20.352 10.309-20.109 10.551.043.044 2.646.434 5.737.858 19.211 2.668 45.752 7.217 51.685 8.865 2.551.711 2.515 1.093.382-5.291-2.846-8.474-4.657-16.371-5.638-24.489-.243-1.926-.477-3.552-.511-3.604-.008-.009-.043-.009-.096 0l-.017.009zM112.32 38.361h-.008l2.991 2.832c3.093 2.897 11.119 10.551 21.368 20.46l5.516 5.356c1.891.33 3.79.668 5.68.989.591-.26 1.926-1.016 3.401-1.948 6.279-3.923 15.352-8.967 23.591-13.096 2.047-1.023 3.695-1.903 3.635-1.947-.053-.043-1.64-.187-3.566-.347-17.087-1.423-48.015-7.346-60.353-11.536l-2.255-.763zm-2.277 1.817l-.763.507c-8.384 5.916-13.313 11.705-13.358 15.625v.638a98.1 98.1 0 0 1 1.813.703c.452.152.898.33 1.366.477.127.039.235.056.347.099.773.248 1.566.469 2.364.703.018.009.043.026.062.034 1.388.4 2.789.798 4.15 1.146.824.212 1.73.425 2.74.668.897.213 1.692.399 2.455.577.256.062.434.096.703.16.381.087.849.188 1.18.257 4.778 1.032 10.967 2.15 16.769 3.152-.055-.152-.728-1.05-1.66-2.169-1.006-1.196-5.516-6.756-10.013-12.368l-8.155-10.209zm69.561 13.904c-.078-.009-.2.043-.286.121-.227.195-1.458 1.228-2.768 2.329-5.473 4.61-11.631 8.881-17.728 12.273-.694.382-1.223.729-1.275.83 9.844 1.63 20.573 3.374 33.185 5.35-.018-.086-.13-.229-.26-.417-1.492-2.271-7.676-14.051-9.664-18.392-.728-1.591-.962-2.085-1.204-2.103v.009zm-78.52 9.848c0 .043 1.253 1.11 2.805 2.325 12.424 9.771 23.18 21.896 29.963 33.821.728 1.28 1.388 2.281 1.439 2.23.069-.053-.512-2.324-1.275-5.07-2.003-7.187-7.871-25.899-8.262-26.336-.035-.043-2.909-.824-6.401-1.722a371.306 371.306 0 0 1-7.684-2.042c-3.348-.934-6.207-1.813-8.384-2.551-1.184-.399-2.167-.702-2.202-.663v.008zm28.6 7.906c-.047 0-.065.018-.065.035 0 .104.517 1.296 1.145 2.646 3.913 8.4 8.292 20.348 10.391 28.44.313 1.206.624 2.203.668 2.203.043 0 1.457-1.379 3.148-3.066 4.224-4.203 10.008-8.821 16.454-13.135 2.584-1.731 10.304-6.341 12.211-7.298.859-.439 1.57-.89 1.57-.99 0-.096-1.554-.442-3.453-.762-11.372-1.909-29.056-5.34-38.961-7.525-1.531-.333-2.819-.554-3.122-.538l.014-.01zm50.346 9.562c-.556-.187-16.445 12.16-22.343 17.373-3.087 2.727-10.27 9.94-10.27 10.295 0 .121 4.034 1.313 8.969 2.681 8.656 2.397 18.768 5.381 24.952 7.364l2.993.957.19-.602c.104-.331.26-2.576.348-5.01.329-8.729-.677-18.179-2.801-26.592-1.11-4.389-1.709-6.358-2.038-6.475v.009zm3.989.576c-.043.044.304.934.738 1.948 4.042 9.406 6.244 20.534 6.252 31.562 0 2.034.044 3.696.096 3.696.061 0 2.506-1.644 5.481-3.63 11.32-7.568 22.699-13.73 38.069-20.66 3.885-1.748 5.082-2.442 4.754-2.585-.703-.295-12.422-2.728-20.506-4.271-10.842-2.077-34.693-6.228-34.875-6.06h-.009zm61.719 12.205c-.227-.222-12.967 6.894-20.885 11.635-9.889 5.933-28.554 18.288-28.172 18.651.088.096 2.116.951 4.459 1.909 8.395 3.465 16.045 7.211 22.802 11.155 1.795 1.049 3.349 1.859 3.477 1.82.123-.035 1.198-1.791 2.421-3.924 6.896-12.07 12.524-24.923 14.632-33.571.677-2.779 1.458-7.497 1.284-7.685l-.018.01zm4.397.702c-.147 0-.321.88-.423 1.943-1.033 11.726-5.058 25.508-11.251 38.674-.763 1.613-1.291 2.966-1.179 2.966s1.569-.582 3.287-1.28c20.607-8.365 42.013-14.992 66.983-20.72l2.968-.703-4.242-1.908c-10.199-4.636-25.934-10.369-39.567-14.445-5.465-1.631-16.038-4.527-16.576-4.527zm-105.198 24.168c-.052.051.086 1.436.329 3.053 1.839 12.755 2.117 25.279.798 35.037-.069.446-.017.828.096.828.112 0 2.333-2.042 4.935-4.559 8.777-8.482 16.098-15.131 23.687-21.483 1.891-1.578 3.443-2.932 3.443-2.993 0-.364-14.051-5.06-20.659-6.916-4.389-1.237-12.446-3.136-12.611-2.967h-.018zm169.633.16c-.104-.109-7.633 2.068-14.701 4.233-13.4 4.116-31.302 10.482-44.408 15.812-7.528 3.061-17.382 7.298-17.372 7.458 0 .07.537.507 1.18.989.65.477 2.584 2.069 4.31 3.504 9.237 7.685 16.976 16.236 23.496 25.989.851 1.271 1.597 2.33 1.656 2.33.062 0 2.004-2.403 4.312-5.321a6440.56 6440.56 0 0 1 15.238-19.229c11.57-14.55 16.644-21.158 20.148-26.176 2.402-3.435 6.271-9.476 6.158-9.588h-.017zm4.433 1.18c-.062.152-1.258 2.628-2.681 5.482-9.498 19.171-17.547 29.892-35.23 46.893-2.846 2.735-5.083 5.007-4.971 5.007.113 0 1.873-.434 3.93-.922 30.104-7.239 61.39-12.442 85.849-14.28 3.174-.244 5.776-.425 5.811-.444.104-.065-7.469-7.932-10.555-10.972-10.886-10.685-24.719-21.084-38.831-29.168-1.684-.967-3.104-1.631-3.313-1.587l-.009-.009zm-129.277 13.262c-.191-.047-.452.538-.676 1.526-2.412 11.11-6.591 22.485-11.788 32.01-1.552 2.849-1.64 3.061-1.405 3.061.069 0 2.421-1.392 5.195-3.087 9.766-5.963 19.082-11.12 30-16.584 3.443-1.722 6.236-3.169 6.186-3.222-.391-.372-8.275-4.566-13.479-7.178-5.698-2.849-13.218-6.352-14.034-6.535v.009zm-7.59 1.34c-.147-.145-11.682 9.076-17.147 13.712-7.65 6.466-17.58 15.491-17.572 15.967 0 .108 1.266.828 2.81 1.627 3.938 2.024 7.026 4.336 10.809 8l3.286 3.128 1.441-2.325c.789-1.298 2.143-3.686 3.061-5.322 3.868-6.965 7.894-16.228 10.27-23.592 1.241-3.833 3.209-11.028 3.062-11.188l-.02-.007zm46.169 18.999l-2.047 3.061c-10.121 15.135-23.678 30.678-39.021 44.789-5.993 5.508-5.663 5.231-5.317 5.231.157 0 2.438-.807 5.092-1.782 23.989-8.813 44.554-15.409 71.165-22.799l4.71-1.309-.737-.738c-1.319-1.383-7.686-7.112-10.963-9.848-5.881-4.884-13.557-10.578-20.054-14.797l-2.828-1.808zm-12.151 3.027c-.148-.143-11.389 5.569-18.71 9.502-10.668 5.72-27.598 15.391-28.7 16.389-.278.247-.061.875 1.275 3.569 3.148 6.362 4.927 13.881 4.944 20.914 0 1.333.104 2.188.26 2.135.122-.048 2.603-2.906 5.508-6.344 6.973-8.24 17.113-20.898 22.803-28.463 4.753-6.335 12.768-17.559 12.62-17.694v-.008zm-73.351 17.967c-.139 0-.704 1.313-1.232 2.932-1.283 3.899-3.062 8.374-4.856 12.146-2.013 4.246-3.938 7.588-7.78 13.456-.577.881-.407.755 4.718-3.312 4.857-3.864 13.244-10.213 18.743-14.182 1.977-1.423 3.496-2.65 3.383-2.746-2.939-2.454-6.271-4.709-9.982-6.761-1.519-.832-2.854-1.525-2.993-1.525v-.008zm19.551 15.338c-.037.009-.087.009-.123.035-.139.087-1.214 1.396-2.429 2.871-11.293 13.817-26.279 27.638-43.675 40.263-2.194 1.597-3.984 2.932-3.984 3 0 .062 2.306-1.058 5.16-2.489 2.85-1.432 7.248-3.513 9.724-4.657 8.864-4.054 21.969-9.519 36.219-15.039l7.937-3.093-.121-1.149c-.66-5.368-3.191-11.978-6.505-16.926-1.562-2.346-1.926-2.839-2.202-2.805v-.011zm-9.022 2.23c-.226-.231-19.896 13.117-28.501 19.316-3.188 2.302-3.586 2.684-5.772 5.516-3.304 4.297-6.235 7.744-10.044 11.891-6.04 6.583-6.526 7.147-6.153 6.922.204-.122 1.782-1.109 3.509-2.204 13.755-8.729 24.848-17.675 36.05-29.103 4.485-4.567 11.146-12.109 10.911-12.338zm77.888 6.947a1055.608 1055.608 0 0 0-32.265 10.391c1.942 1.492 12.715 8.664 18.458 12.272 6.643 4.172 16.044 9.688 16.505 9.688.146 0 .165-1.553.061-3.946-.425-10.006-1.944-25.066-2.776-28.405h.017zm-38.415 12.502c-.529.188-1.076.355-1.588.542-.069.756-.086 2.195-.103 5.07-.061 11.73-2.265 26.354-6.176 40.838-.469 1.762-.799 3.191-.711 3.191.104 0 2.48-1.014 5.299-2.271 16.16-7.182 29.36-14.26 39.95-21.459 4.97-3.364 4.71-3 2.55-3.947-6.955-3.044-23.209-12.064-35.205-19.575-2.012-1.262-3.218-1.999-4.007-2.39h-.009zm-8.995 3.187a530.707 530.707 0 0 0-5.967 2.204c-8.967 3.373-17.529 6.694-25.75 10.044.381 1.283 2.039 5.271 3.149 7.458 2.601 5.127 6.166 10.322 10.685 15.561 2.637 3.07 10.582 10.789 10.808 10.52.103-.112.71-1.95 1.343-4.076 2.654-8.941 4.312-16.783 5.317-25.281.381-3.202.632-14.091.416-16.419v-.011zm-37.781 14.771c-.797.331-1.605.66-2.394.98-.061.147-.139.313-.19.513-.174.563-1.146 3.113-2.151 5.681-5.778 14.728-16.098 35.561-22.92 46.229-1.527 2.386-1.705 2.707-1.18 2.516.169-.061 4.583-1.491 9.823-3.192 13.73-4.44 25.707-8.611 36.697-12.775 9.479-3.599 9.358-3.529 8.994-3.859-.19-.156-1.492-1.267-2.87-2.446-4.312-3.694-9.445-9.254-13.401-14.477-3.608-4.777-7.771-12.219-9.627-17.25-.329-.885-.624-1.622-.797-1.908l.016-.012zm-12.082 5.135c-11.635 5.057-22.568 10.139-32.971 15.326-.343.537-.552 1.396-.959 3.349-1.02 4.892-1.163 12.767-.321 17.312.855 4.595 2.498 9.54 4.472 13.46.893 1.787 1.01 1.909 1.304 1.492.178-.251 1.484-2.309 2.902-4.588 8.226-13.176 14.432-23.983 20.056-34.938 2.417-4.708 4.85-9.757 5.517-11.413zm100.386 3.478l-.858.72c-1.18 1.041-6.497 4.9-10.044 7.27-9.48 6.33-20.383 12.696-31.797 18.612-2.87 1.493-5.256 2.767-5.308 2.836-.243.226 7.927 5.256 13.573 8.344 8.525 4.675 17.997 8.708 26.715 11.413 1.968.617 3.615 1.11 3.635 1.086.016-.026.319-1.899.666-4.173 2.004-12.949 3.4-30.713 3.409-43.679v-2.454l.009.025zM90.364 255.841c-2.832 1.493-5.659 2.983-8.417 4.493-4.736 2.593-8.183 4.501-11.093 6.184-6.184 3.79-10.447 7.269-15.565 12.559-9.084 9.386-15.568 20.592-16.891 29.108-.151.981-.134 1.075.286.955.255-.078 3.4-.972 6.978-1.944 12.082-3.305 50.492-14.536 50.913-14.883.043-.052-.873-2.048-2.043-4.44-4.218-8.568-5.606-14.831-5.134-23.331.104-1.942.382-4.735.638-6.229.278-1.596.38-2.254.321-2.48l.007.008zm90.498 16.124c-.035.035-.347 1.023-.729 2.202-3.729 11.484-11.005 28.016-18.292 41.633-1.311 2.447-2.386 4.528-2.386 4.598 0 .051.608-.165 1.336-.451.728-.278 4.406-1.666 8.188-3.088 25.95-9.73 51.329-20.305 59.047-24.58l1.849-1.023-1.344-.321c-14.763-3.374-32.093-10.104-44.504-17.286-1.708-.989-3.114-1.734-3.148-1.683h-.017zM171.615 275c-.035-.052-1.907.711-4.163 1.685-15.985 6.886-32.03 12.437-50.986 17.631l-5.322 1.467 1.023 1.283c7.161 9.029 18.068 18.31 30.383 25.847 2.073 1.267 3.825 2.29 3.895 2.29.07 0 1.891-3.098 4.042-6.912 8.464-15.006 15.092-28.371 20.156-40.618.59-1.439 1.024-2.637.989-2.681l-.017.008zm57.427 20.019c-.191-.034-1.04.372-2.168 1.041-9.376 5.638-36.767 18.786-63.22 30.322-4.371 1.916-7.885 3.538-7.781 3.644.312.294 6.184 2.888 10.226 4.526 14.493 5.812 29.924 10.166 47.184 13.288.347.069.693.146.762.164.069.018 1.268-3.599 2.69-8.04 3.183-10.052 4.891-15.768 6.955-23.019 2.438-8.647 5.387-20.573 5.387-21.865 0-.027-.01-.054-.035-.061zm-132.508 4.518c-.034-.025-2.805.633-6.152 1.44-3.349.807-12.704 3.001-20.783 4.875-14.548 3.373-30.047 7.016-30.889 7.268-.586.174-.586 1.587.035 4.362 1.331 6.019 4.735 12.559 9.727 18.787 2.424 3.019 7.754 8.43 10.807 10.987l2.611 2.205 2.424-3.765a269.143 269.143 0 0 1 5.26-7.815c1.562-2.202 5.78-8.101 9.368-13.132 10.328-14.456 17.737-25.081 17.592-25.212zm7.438 2.88h.009l-10.244 12.334c-14.965 18.023-21.812 26.704-27.256 34.598l-1.687 2.386 1.084.763c.586.425 1.111.755 1.145.763.036.009 7.638-2.61 16.893-5.837 16.405-5.716 51.888-18.318 52.312-18.586.121-.069-1.284-1.017-3.122-2.073-10.387-6.003-18.895-12.959-27.26-22.273l-1.874-2.075zm46.394 33.124c-.043.051-1.648 2.463-3.539 5.351-6.929 10.557-15.225 21.728-23.583 31.719-1.695 2.03-3.091 3.809-3.091 3.929 0 .261 1.965.755 2.523.642.204-.042 4.154-1.162 8.765-2.489 24.866-7.155 55.371-16.148 65.345-19.289 6.296-1.978 14.814-4.848 15.212-5.099.2-.131-.449-.278-1.752-.382-8.447-.712-22.688-3.176-32.551-5.639-8.039-2.013-13.99-3.868-21.544-6.696-3.132-1.179-5.733-2.097-5.776-2.046h-.009zm-10.27.277c-.035-.035-1.491.391-3.226.919-9.232 2.88-23.31 6.869-48.77 13.808-9.576 2.61-17.533 4.771-17.668 4.814-.46.139 5.43 3.842 10.048 6.34 3.695 1.995 8.704 4.302 13.518 6.219 3.881 1.535 18.543 6.731 20.62 7.295l.897.225 1.687-2.966c.932-1.63 2.664-4.492 3.855-6.375 1.188-1.883 4.653-7.364 7.72-12.177 7.242-11.414 11.387-18.031 11.318-18.11v.008zm72.311 16.965l.009.009c-.383.077-1.926.72-3.73 1.562-11.432 5.317-22.741 9.705-34.173 13.201-9.072 2.767-17.997 5.021-36.601 9.21l-8.708 1.944 1.431.32c6.115 1.387 30.374 5.637 44.84 7.832 8.266 1.258 21.953 3.148 22.924 3.184.399.017.668-.4 1.439-2.256 3.445-8.283 12.889-34.398 12.655-35.006-.009-.008-.044-.008-.097 0h.011z"/></svg>