<svg xmlns="http://www.w3.org/2000/svg" width="400" height="400" viewBox="0 0 400 400"><path fill="#FFF" d="M309.354 62.803C272.293 32.909 256.168 16.028 201 7.353 140.08 4.429 97.078 56.862 67.183 88.265c-29.894 37.061-46.774 53.188-55.45 108.354C8.81 257.54 61.242 300.542 92.646 330.436c37.061 29.896 53.188 46.775 108.354 55.451 60.92 2.923 103.923-49.51 133.816-80.912 29.896-37.062 46.775-53.187 55.451-108.355 2.923-60.921-49.509-103.923-80.913-133.817zm-6.129 232.082s-12.637-21.031-33.572-21.031c-20.274 0-32.251 21.031-73.179 21.031-91.003 0-134.1-76.01-134.1-76.01 81.95 54.036 137.966 15.749 137.966 15.749-36.967-21.407-115.522-123.915-115.522-123.915 68.464 58.279 97.981 73.557 97.981 73.557-17.729-14.523-67.238-85.816-67.238-85.816 39.607 40.079 118.352 95.907 118.352 95.907C256.451 132.683 212.6 77.42 212.6 77.42c107.129 72.896 72.426 153.055 72.426 153.055s30.459 34.326 18.199 64.41z"/></svg>