<?xml version="1.0" encoding="UTF-8" standalone="no"?>
<!-- Created with Inkscape (http://www.inkscape.org/) -->

<svg
   xmlns:dc="http://purl.org/dc/elements/1.1/"
   xmlns:cc="http://creativecommons.org/ns#"
   xmlns:rdf="http://www.w3.org/1999/02/22-rdf-syntax-ns#"
   xmlns:svg="http://www.w3.org/2000/svg"
   xmlns="http://www.w3.org/2000/svg"
   xmlns:sodipodi="http://sodipodi.sourceforge.net/DTD/sodipodi-0.dtd"
   xmlns:inkscape="http://www.inkscape.org/namespaces/inkscape"
   version="1.1"
   id="svg2"
   xml:space="preserve"
   width="793.70667"
   height="1122.52"
   viewBox="0 0 793.70667 1122.52"
   sodipodi:docname="leo_logo_porp02.ai.svg"
   inkscape:version="0.92.2 (5c3e80d, 2017-08-06)"
   inkscape:export-filename="/home/leonardo/Documents/LEO_LMF/leo_logo_porp02.ai.svg.png"
   inkscape:export-xdpi="96"
   inkscape:export-ydpi="96"><metadata
     id="metadata8"><rdf:RDF><cc:Work
         rdf:about=""><dc:format>image/svg+xml</dc:format><dc:type
           rdf:resource="http://purl.org/dc/dcmitype/StillImage" /><dc:title></dc:title></cc:Work></rdf:RDF></metadata><defs
     id="defs6"><clipPath
       clipPathUnits="userSpaceOnUse"
       id="clipPath40"><path
         d="M 0,841.89 H 595.28 V 0 H 0 Z"
         id="path38"
         inkscape:connector-curvature="0" /></clipPath></defs><sodipodi:namedview
     pagecolor="#ffffff"
     bordercolor="#666666"
     borderopacity="1"
     objecttolerance="10"
     gridtolerance="10"
     guidetolerance="10"
     inkscape:pageopacity="0"
     inkscape:pageshadow="2"
     inkscape:window-width="1366"
     inkscape:window-height="674"
     id="namedview4"
     showgrid="false"
     showguides="true"
     inkscape:guide-bbox="true"
     inkscape:zoom="0.84096496"
     inkscape:cx="189.36519"
     inkscape:cy="893.52828"
     inkscape:window-x="0"
     inkscape:window-y="27"
     inkscape:window-maximized="1"
     inkscape:current-layer="g10" /><g
     id="g10"
     inkscape:groupmode="layer"
     inkscape:label="leo_logo_porp02"
     transform="matrix(1.3333333,0,0,-1.3333333,0,1122.52)"><g
       id="g12"
       transform="translate(255.7153,641.5521)"
       inkscape:export-xdpi="96"
       inkscape:export-ydpi="96"><path
         d="m 0,0 5.752,-5.865 50.607,51.598 v 11.73 z"
         style="fill:#231f20;fill-opacity:1;fill-rule:nonzero;stroke:none"
         id="path14"
         inkscape:connector-curvature="0" /></g><path
       d="M 105.416,619.799 H 94.5 v 76.38 h 10.916 z"
       style="fill:#231f20;fill-opacity:1;fill-rule:nonzero;stroke:none"
       id="path16"
       inkscape:connector-curvature="0"
       inkscape:export-xdpi="96"
       inkscape:export-ydpi="96" /><path
       d="m 199.019,632.632 h -10.916 v 63.547 h 10.916 z"
       style="fill:#231f20;fill-opacity:1;fill-rule:nonzero;stroke:none"
       id="path18"
       inkscape:connector-curvature="0"
       inkscape:export-xdpi="96"
       inkscape:export-ydpi="96" /><g
       id="g20"
       transform="matrix(1.2013852,0,0,1.2013852,275.49526,619.90035)"
       inkscape:export-xdpi="96"
       inkscape:export-ydpi="96"><path
         d="M 0,0 H -10.379 L -62.272,52.91 V 63.493 Z"
         style="fill:#231f20;fill-opacity:1;fill-rule:nonzero;stroke:none"
         id="path22"
         inkscape:connector-curvature="0" /></g><path
       d="m 313.62569,619.90035 h 11.34862 V 699.167 h -11.34862 z"
       style="fill:#231f20;fill-opacity:1;fill-rule:nonzero;stroke:none;stroke-width:1.03963089"
       id="path24"
       inkscape:connector-curvature="0"
       inkscape:export-xdpi="96"
       inkscape:export-ydpi="96" /><path
       d="M 199.019,619.799 H 94.5 v 10.916 h 104.519 z"
       style="fill:#231f20;fill-opacity:1;fill-rule:nonzero;stroke:none"
       id="path26"
       inkscape:connector-curvature="0"
       inkscape:export-xdpi="96"
       inkscape:export-ydpi="96" /><path
       d="m 337.92,619.87 h -10.916 v 76.31 h 10.916 z"
       style="fill:#231f20;fill-opacity:1;fill-rule:nonzero;stroke:none"
       id="path28"
       inkscape:connector-curvature="0"
       inkscape:export-xdpi="96"
       inkscape:export-ydpi="96" /><path
       d="M 412.42609,687.17944 H 328.003 v 8.93712 h 84.42309 z"
       style="fill:#231f20;fill-opacity:1;fill-rule:nonzero;stroke:none;stroke-width:0.98861867"
       id="path30"
       inkscape:connector-curvature="0"
       inkscape:export-xdpi="96"
       inkscape:export-ydpi="96" /><path
       d="m 400.501,656.102 h -72.497 v 10.916 h 72.497 z"
       style="fill:#231f20;fill-opacity:1;fill-rule:nonzero;stroke:none"
       id="path32"
       inkscape:connector-curvature="0"
       inkscape:export-xdpi="96"
       inkscape:export-ydpi="96" /><g
       id="g34"
       transform="matrix(1.0005263,0,0,1.0005263,-0.04973831,-0.30575482)"
       inkscape:export-xdpi="96"
       inkscape:export-ydpi="96"><g
         id="g36"
         clip-path="url(#clipPath40)"><g
           id="g42"
           transform="translate(104.437,601.5521)"><path
             d="m 0,0 h -4.725 c -0.598,0 -1.097,-0.058 -1.497,-0.173 -0.401,-0.116 -0.723,-0.282 -0.967,-0.499 -0.245,-0.218 -0.418,-0.482 -0.519,-0.794 -0.103,-0.313 -0.153,-0.659 -0.153,-1.039 0,-0.543 0.125,-0.995 0.377,-1.354 0.251,-0.36 0.58,-0.656 0.987,-0.886 0.408,-0.231 0.869,-0.428 1.385,-0.59 0.516,-0.164 1.046,-0.324 1.589,-0.479 0.543,-0.157 1.072,-0.33 1.588,-0.519 0.516,-0.191 0.977,-0.436 1.385,-0.734 0.407,-0.299 0.737,-0.672 0.987,-1.12 0.251,-0.448 0.377,-1.012 0.377,-1.69 0,-1.195 -0.39,-2.095 -1.17,-2.699 -0.781,-0.604 -1.871,-0.906 -3.269,-0.906 h -5.132 v 0.774 h 5.01 c 1.167,0 2.07,0.23 2.708,0.692 0.638,0.462 0.957,1.134 0.957,2.016 0,0.598 -0.126,1.09 -0.376,1.477 -0.252,0.387 -0.581,0.71 -0.988,0.967 -0.408,0.258 -0.869,0.469 -1.385,0.632 -0.516,0.163 -1.045,0.319 -1.588,0.468 -0.544,0.149 -1.073,0.316 -1.589,0.499 -0.516,0.183 -0.978,0.42 -1.385,0.713 -0.407,0.292 -0.737,0.662 -0.988,1.11 -0.251,0.448 -0.376,1.018 -0.376,1.711 0,0.542 0.098,1.014 0.295,1.415 0.196,0.401 0.462,0.733 0.794,0.998 0.333,0.264 0.723,0.461 1.171,0.591 0.448,0.128 0.93,0.193 1.446,0.193 H 0 Z"
             style="fill:#231f20;fill-opacity:1;fill-rule:nonzero;stroke:none"
             id="path44"
             inkscape:connector-curvature="0" /></g><g
           id="g46"
           transform="translate(104.437,601.5521)"><path
             d="m 0,0 h -4.725 c -0.598,0 -1.097,-0.058 -1.497,-0.173 -0.401,-0.116 -0.723,-0.282 -0.967,-0.499 -0.245,-0.218 -0.418,-0.482 -0.519,-0.794 -0.103,-0.313 -0.153,-0.659 -0.153,-1.039 0,-0.543 0.125,-0.995 0.377,-1.354 0.251,-0.36 0.58,-0.656 0.987,-0.886 0.408,-0.231 0.869,-0.428 1.385,-0.59 0.516,-0.164 1.046,-0.324 1.589,-0.479 0.543,-0.157 1.072,-0.33 1.588,-0.519 0.516,-0.191 0.977,-0.436 1.385,-0.734 0.407,-0.299 0.737,-0.672 0.987,-1.12 0.251,-0.448 0.377,-1.012 0.377,-1.69 0,-1.195 -0.39,-2.095 -1.17,-2.699 -0.781,-0.604 -1.871,-0.906 -3.269,-0.906 h -5.132 v 0.774 h 5.01 c 1.167,0 2.07,0.23 2.708,0.692 0.638,0.462 0.957,1.134 0.957,2.016 0,0.598 -0.126,1.09 -0.376,1.477 -0.252,0.387 -0.581,0.71 -0.988,0.967 -0.408,0.258 -0.869,0.469 -1.385,0.632 -0.516,0.163 -1.045,0.319 -1.588,0.468 -0.544,0.149 -1.073,0.316 -1.589,0.499 -0.516,0.183 -0.978,0.42 -1.385,0.713 -0.407,0.292 -0.737,0.662 -0.988,1.11 -0.251,0.448 -0.376,1.018 -0.376,1.711 0,0.542 0.098,1.014 0.295,1.415 0.196,0.401 0.462,0.733 0.794,0.998 0.333,0.264 0.723,0.461 1.171,0.591 0.448,0.128 0.93,0.193 1.446,0.193 H 0 Z"
             style="fill:none;stroke:#221f20;stroke-width:0.5;stroke-linecap:butt;stroke-linejoin:miter;stroke-miterlimit:10;stroke-dasharray:none;stroke-opacity:1"
             id="path48"
             inkscape:connector-curvature="0" /></g><g
           id="g50"
           transform="translate(118.1021,588.5995)"><path
             d="m 0,0 c 0.896,0 1.734,0.176 2.515,0.529 0.781,0.353 1.456,0.832 2.027,1.436 0.57,0.604 1.018,1.304 1.344,2.098 0.326,0.794 0.489,1.64 0.489,2.536 0,0.896 -0.163,1.741 -0.489,2.535 -0.326,0.794 -0.774,1.493 -1.344,2.098 -0.571,0.604 -1.246,1.082 -2.027,1.435 -0.781,0.354 -1.619,0.53 -2.515,0.53 -0.91,0 -1.751,-0.176 -2.525,-0.53 C -3.299,12.314 -3.968,11.836 -4.531,11.232 -5.095,10.627 -5.536,9.928 -5.855,9.134 -6.174,8.34 -6.334,7.495 -6.334,6.599 c 0,-0.896 0.16,-1.742 0.479,-2.536 0.319,-0.794 0.76,-1.494 1.324,-2.098 C -3.968,1.361 -3.299,0.882 -2.525,0.529 -1.751,0.176 -0.91,0 0,0 m 0,-0.774 c -1.018,0 -1.965,0.194 -2.841,0.581 -0.876,0.386 -1.639,0.916 -2.291,1.588 -0.652,0.672 -1.164,1.456 -1.538,2.353 -0.373,0.896 -0.559,1.846 -0.559,2.851 0,1.004 0.186,1.955 0.559,2.851 0.374,0.896 0.886,1.68 1.538,2.352 0.652,0.672 1.415,1.201 2.291,1.589 0.876,0.386 1.823,0.58 2.841,0.58 1.019,0 1.969,-0.194 2.851,-0.58 0.883,-0.388 1.65,-0.917 2.302,-1.589 C 5.804,11.13 6.32,10.346 6.701,9.45 7.081,8.554 7.271,7.603 7.271,6.599 7.271,5.594 7.081,4.644 6.701,3.748 6.32,2.851 5.804,2.067 5.153,1.395 4.501,0.723 3.734,0.193 2.851,-0.193 1.969,-0.58 1.019,-0.774 0,-0.774"
             style="fill:#231f20;fill-opacity:1;fill-rule:nonzero;stroke:none"
             id="path52"
             inkscape:connector-curvature="0" /></g><g
           id="g54"
           transform="translate(118.1021,588.5995)"><path
             d="m 0,0 c 0.896,0 1.734,0.176 2.515,0.529 0.781,0.353 1.456,0.832 2.027,1.436 0.57,0.604 1.018,1.304 1.344,2.098 0.326,0.794 0.489,1.64 0.489,2.536 0,0.896 -0.163,1.741 -0.489,2.535 -0.326,0.794 -0.774,1.493 -1.344,2.098 -0.571,0.604 -1.246,1.082 -2.027,1.435 -0.781,0.354 -1.619,0.53 -2.515,0.53 -0.91,0 -1.751,-0.176 -2.525,-0.53 C -3.299,12.314 -3.968,11.836 -4.531,11.232 -5.095,10.627 -5.536,9.928 -5.855,9.134 -6.174,8.34 -6.334,7.495 -6.334,6.599 c 0,-0.896 0.16,-1.742 0.479,-2.536 0.319,-0.794 0.76,-1.494 1.324,-2.098 C -3.968,1.361 -3.299,0.882 -2.525,0.529 -1.751,0.176 -0.91,0 0,0 Z m 0,-0.774 c -1.018,0 -1.965,0.194 -2.841,0.581 -0.876,0.386 -1.639,0.916 -2.291,1.588 -0.652,0.672 -1.164,1.456 -1.538,2.353 -0.373,0.896 -0.559,1.846 -0.559,2.851 0,1.004 0.186,1.955 0.559,2.851 0.374,0.896 0.886,1.68 1.538,2.352 0.652,0.672 1.415,1.201 2.291,1.589 0.876,0.386 1.823,0.58 2.841,0.58 1.019,0 1.969,-0.194 2.851,-0.58 0.883,-0.388 1.65,-0.917 2.302,-1.589 C 5.804,11.13 6.32,10.346 6.701,9.45 7.081,8.554 7.271,7.603 7.271,6.599 7.271,5.594 7.081,4.644 6.701,3.748 6.32,2.851 5.804,2.067 5.153,1.395 4.501,0.723 3.734,0.193 2.851,-0.193 1.969,-0.58 1.019,-0.774 0,-0.774 Z"
             style="fill:none;stroke:#221f20;stroke-width:0.5;stroke-linecap:butt;stroke-linejoin:miter;stroke-miterlimit:10;stroke-dasharray:none;stroke-opacity:1"
             id="path56"
             inkscape:connector-curvature="0" /></g><g
           id="g58"
           transform="translate(132.2769,602.326)"><path
             d="m 0,0 v -10.02 c 0,-0.502 0.075,-0.967 0.224,-1.395 0.149,-0.428 0.357,-0.798 0.621,-1.11 0.265,-0.312 0.587,-0.557 0.967,-0.733 0.38,-0.177 0.808,-0.265 1.284,-0.265 h 2.708 v -0.733 H 2.811 c -0.435,0 -0.873,0.088 -1.314,0.265 -0.441,0.176 -0.835,0.441 -1.182,0.794 -0.345,0.353 -0.627,0.791 -0.844,1.314 -0.218,0.522 -0.326,1.13 -0.326,1.822 V 0 Z"
             style="fill:#231f20;fill-opacity:1;fill-rule:nonzero;stroke:none"
             id="path60"
             inkscape:connector-curvature="0" /></g><g
           id="g62"
           transform="translate(132.2769,602.326)"><path
             d="m 0,0 v -10.02 c 0,-0.502 0.075,-0.967 0.224,-1.395 0.149,-0.428 0.357,-0.798 0.621,-1.11 0.265,-0.312 0.587,-0.557 0.967,-0.733 0.38,-0.177 0.808,-0.265 1.284,-0.265 h 2.708 v -0.733 H 2.811 c -0.435,0 -0.873,0.088 -1.314,0.265 -0.441,0.176 -0.835,0.441 -1.182,0.794 -0.345,0.353 -0.627,0.791 -0.844,1.314 -0.218,0.522 -0.326,1.13 -0.326,1.822 V 0 Z"
             style="fill:none;stroke:#221f20;stroke-width:0.5;stroke-linecap:butt;stroke-linejoin:miter;stroke-miterlimit:10;stroke-dasharray:none;stroke-opacity:1"
             id="path64"
             inkscape:connector-curvature="0" /></g><g
           id="g66"
           transform="translate(144.2725,602.326)"><path
             d="m 0,0 v -9.857 c 0,-0.598 0.098,-1.137 0.295,-1.619 0.197,-0.482 0.472,-0.889 0.825,-1.222 0.353,-0.333 0.777,-0.588 1.273,-0.764 0.495,-0.177 1.049,-0.265 1.66,-0.265 0.611,0 1.164,0.088 1.659,0.265 0.496,0.176 0.92,0.431 1.273,0.764 0.353,0.333 0.628,0.74 0.825,1.222 0.197,0.482 0.295,1.021 0.295,1.619 V 0 h 0.856 v -9.592 c 0,-0.774 -0.116,-1.467 -0.347,-2.078 -0.23,-0.611 -0.559,-1.123 -0.987,-1.538 -0.428,-0.414 -0.944,-0.732 -1.548,-0.957 -0.604,-0.223 -1.28,-0.335 -2.026,-0.335 -0.747,0 -1.423,0.112 -2.027,0.335 -0.604,0.225 -1.12,0.543 -1.547,0.957 -0.428,0.415 -0.757,0.927 -0.988,1.538 -0.231,0.611 -0.346,1.304 -0.346,2.078 V 0 Z"
             style="fill:#231f20;fill-opacity:1;fill-rule:nonzero;stroke:none"
             id="path68"
             inkscape:connector-curvature="0" /></g><g
           id="g70"
           transform="translate(144.2725,602.326)"><path
             d="m 0,0 v -9.857 c 0,-0.598 0.098,-1.137 0.295,-1.619 0.197,-0.482 0.472,-0.889 0.825,-1.222 0.353,-0.333 0.777,-0.588 1.273,-0.764 0.495,-0.177 1.049,-0.265 1.66,-0.265 0.611,0 1.164,0.088 1.659,0.265 0.496,0.176 0.92,0.431 1.273,0.764 0.353,0.333 0.628,0.74 0.825,1.222 0.197,0.482 0.295,1.021 0.295,1.619 V 0 h 0.856 v -9.592 c 0,-0.774 -0.116,-1.467 -0.347,-2.078 -0.23,-0.611 -0.559,-1.123 -0.987,-1.538 -0.428,-0.414 -0.944,-0.732 -1.548,-0.957 -0.604,-0.223 -1.28,-0.335 -2.026,-0.335 -0.747,0 -1.423,0.112 -2.027,0.335 -0.604,0.225 -1.12,0.543 -1.547,0.957 -0.428,0.415 -0.757,0.927 -0.988,1.538 -0.231,0.611 -0.346,1.304 -0.346,2.078 V 0 Z"
             style="fill:none;stroke:#221f20;stroke-width:0.5;stroke-linecap:butt;stroke-linejoin:miter;stroke-miterlimit:10;stroke-dasharray:none;stroke-opacity:1"
             id="path72"
             inkscape:connector-curvature="0" /></g><g
           id="g74"
           transform="translate(164.0273,585.0765)"><path
             d="M 0,0 C 0.244,-0.123 0.501,-0.217 0.773,-0.286 1.045,-0.353 1.316,-0.38 1.588,-0.367 1.874,-0.38 2.162,-0.306 2.454,-0.143 2.746,0.02 2.892,0.264 2.892,0.59 2.892,0.943 2.77,1.185 2.525,1.313 2.281,1.442 2.009,1.506 1.71,1.506 1.602,1.506 1.456,1.48 1.272,1.425 1.089,1.371 0.943,1.317 0.835,1.262 L 0.509,1.527 1.629,3.034 C 0.814,3.116 0.034,3.333 -0.713,3.686 -1.46,4.039 -2.118,4.514 -2.689,5.112 c -0.57,0.597 -1.028,1.316 -1.374,2.159 -0.346,0.841 -0.52,1.792 -0.52,2.851 0,1.153 0.2,2.172 0.601,3.055 0.4,0.882 0.93,1.625 1.588,2.229 0.659,0.604 1.413,1.062 2.261,1.375 0.848,0.312 1.714,0.469 2.597,0.469 h 1.833 v -0.734 h -1.67 c -0.747,0 -1.497,-0.129 -2.251,-0.387 -0.753,-0.258 -1.429,-0.651 -2.026,-1.181 -0.598,-0.529 -1.086,-1.195 -1.466,-1.996 -0.381,-0.801 -0.571,-1.744 -0.571,-2.83 0,-1.087 0.19,-2.031 0.571,-2.831 C -2.736,6.489 -2.248,5.824 -1.65,5.294 -1.053,4.765 -0.377,4.371 0.376,4.114 1.13,3.855 1.88,3.727 2.627,3.727 h 1.65 V 2.994 H 2.464 2.281 L 1.364,1.914 1.405,1.874 c 0.081,0.067 0.2,0.111 0.356,0.131 0.156,0.021 0.296,0.032 0.418,0.032 0.421,0 0.78,-0.13 1.079,-0.388 C 3.557,1.392 3.706,1.045 3.706,0.611 3.706,0.326 3.635,0.088 3.493,-0.102 3.35,-0.292 3.169,-0.445 2.953,-0.561 2.735,-0.676 2.498,-0.761 2.24,-0.815 1.981,-0.869 1.737,-0.896 1.506,-0.896 c -0.284,0 -0.583,0.037 -0.895,0.111 -0.313,0.075 -0.605,0.174 -0.876,0.296 z"
             style="fill:#231f20;fill-opacity:1;fill-rule:nonzero;stroke:none"
             id="path76"
             inkscape:connector-curvature="0" /></g><g
           id="g78"
           transform="translate(164.0273,585.0765)"><path
             d="M 0,0 C 0.244,-0.123 0.501,-0.217 0.773,-0.286 1.045,-0.353 1.316,-0.38 1.588,-0.367 1.874,-0.38 2.162,-0.306 2.454,-0.143 2.746,0.02 2.892,0.264 2.892,0.59 2.892,0.943 2.77,1.185 2.525,1.313 2.281,1.442 2.009,1.506 1.71,1.506 1.602,1.506 1.456,1.48 1.272,1.425 1.089,1.371 0.943,1.317 0.835,1.262 L 0.509,1.527 1.629,3.034 C 0.814,3.116 0.034,3.333 -0.713,3.686 -1.46,4.039 -2.118,4.514 -2.689,5.112 c -0.57,0.597 -1.028,1.316 -1.374,2.159 -0.346,0.841 -0.52,1.792 -0.52,2.851 0,1.153 0.2,2.172 0.601,3.055 0.4,0.882 0.93,1.625 1.588,2.229 0.659,0.604 1.413,1.062 2.261,1.375 0.848,0.312 1.714,0.469 2.597,0.469 h 1.833 v -0.734 h -1.67 c -0.747,0 -1.497,-0.129 -2.251,-0.387 -0.753,-0.258 -1.429,-0.651 -2.026,-1.181 -0.598,-0.529 -1.086,-1.195 -1.466,-1.996 -0.381,-0.801 -0.571,-1.744 -0.571,-2.83 0,-1.087 0.19,-2.031 0.571,-2.831 C -2.736,6.489 -2.248,5.824 -1.65,5.294 -1.053,4.765 -0.377,4.371 0.376,4.114 1.13,3.855 1.88,3.727 2.627,3.727 h 1.65 V 2.994 H 2.464 2.281 L 1.364,1.914 1.405,1.874 c 0.081,0.067 0.2,0.111 0.356,0.131 0.156,0.021 0.296,0.032 0.418,0.032 0.421,0 0.78,-0.13 1.079,-0.388 C 3.557,1.392 3.706,1.045 3.706,0.611 3.706,0.326 3.635,0.088 3.493,-0.102 3.35,-0.292 3.169,-0.445 2.953,-0.561 2.735,-0.676 2.498,-0.761 2.24,-0.815 1.981,-0.869 1.737,-0.896 1.506,-0.896 c -0.284,0 -0.583,0.037 -0.895,0.111 -0.313,0.075 -0.605,0.174 -0.876,0.296 z"
             style="fill:none;stroke:#221f20;stroke-width:0.5;stroke-linecap:butt;stroke-linejoin:miter;stroke-miterlimit:10;stroke-dasharray:none;stroke-opacity:1"
             id="path80"
             inkscape:connector-curvature="0" /></g><g
           id="g82"
           transform="translate(177.835,603.4662)"><path
             d="m 0,0 c 0.041,0.217 0.099,0.431 0.173,0.642 0.075,0.21 0.18,0.4 0.316,0.57 0.135,0.17 0.295,0.309 0.478,0.417 0.184,0.109 0.398,0.163 0.642,0.163 0.217,0 0.448,-0.058 0.692,-0.173 C 2.545,1.504 2.79,1.378 3.035,1.243 3.279,1.107 3.513,0.981 3.737,0.866 3.961,0.75 4.155,0.693 4.318,0.693 c 0.352,0 0.597,0.108 0.733,0.326 0.136,0.217 0.23,0.475 0.285,0.773 H 5.947 C 5.906,1.575 5.848,1.361 5.774,1.151 5.699,0.94 5.594,0.75 5.458,0.581 5.322,0.411 5.163,0.272 4.979,0.163 4.796,0.055 4.582,0 4.338,0 4.121,0 3.89,0.058 3.646,0.173 3.401,0.289 3.157,0.415 2.913,0.55 2.668,0.686 2.434,0.812 2.209,0.927 1.986,1.042 1.792,1.1 1.629,1.1 1.276,1.1 1.032,0.991 0.896,0.774 0.76,0.557 0.665,0.299 0.611,0 Z m 2.953,-14.867 c 0.896,0 1.734,0.177 2.515,0.53 0.781,0.353 1.456,0.832 2.027,1.436 0.57,0.604 1.018,1.303 1.344,2.097 0.326,0.795 0.489,1.64 0.489,2.536 0,0.896 -0.163,1.741 -0.489,2.535 -0.326,0.795 -0.774,1.494 -1.344,2.098 -0.571,0.604 -1.246,1.083 -2.027,1.436 -0.781,0.353 -1.619,0.53 -2.515,0.53 -0.91,0 -1.751,-0.177 -2.525,-0.53 -0.774,-0.353 -1.443,-0.832 -2.006,-1.436 -0.564,-0.604 -1.005,-1.303 -1.324,-2.098 -0.319,-0.794 -0.479,-1.639 -0.479,-2.535 0,-0.896 0.16,-1.741 0.479,-2.536 0.319,-0.794 0.76,-1.493 1.324,-2.097 0.563,-0.604 1.232,-1.083 2.006,-1.436 0.774,-0.353 1.615,-0.53 2.525,-0.53 m 0,-0.774 c -1.018,0 -1.965,0.194 -2.841,0.581 -0.876,0.387 -1.64,0.916 -2.291,1.588 -0.652,0.672 -1.165,1.456 -1.538,2.353 -0.373,0.896 -0.56,1.846 -0.56,2.851 0,1.004 0.187,1.955 0.56,2.851 0.373,0.896 0.886,1.68 1.538,2.353 0.651,0.671 1.415,1.201 2.291,1.588 0.876,0.387 1.823,0.58 2.841,0.58 1.018,0 1.968,-0.193 2.851,-0.58 0.883,-0.387 1.65,-0.917 2.302,-1.588 0.651,-0.673 1.167,-1.457 1.547,-2.353 0.38,-0.896 0.571,-1.847 0.571,-2.851 0,-1.005 -0.191,-1.955 -0.571,-2.851 -0.38,-0.897 -0.896,-1.681 -1.547,-2.353 -0.652,-0.672 -1.419,-1.201 -2.302,-1.588 -0.883,-0.387 -1.833,-0.581 -2.851,-0.581"
             style="fill:#231f20;fill-opacity:1;fill-rule:nonzero;stroke:none"
             id="path84"
             inkscape:connector-curvature="0" /></g><g
           id="g86"
           transform="translate(177.835,603.4662)"><path
             d="m 0,0 c 0.041,0.217 0.099,0.431 0.173,0.642 0.075,0.21 0.18,0.4 0.316,0.57 0.135,0.17 0.295,0.309 0.478,0.417 0.184,0.109 0.398,0.163 0.642,0.163 0.217,0 0.448,-0.058 0.692,-0.173 C 2.545,1.504 2.79,1.378 3.035,1.243 3.279,1.107 3.513,0.981 3.737,0.866 3.961,0.75 4.155,0.693 4.318,0.693 c 0.352,0 0.597,0.108 0.733,0.326 0.136,0.217 0.23,0.475 0.285,0.773 H 5.947 C 5.906,1.575 5.848,1.361 5.774,1.151 5.699,0.94 5.594,0.75 5.458,0.581 5.322,0.411 5.163,0.272 4.979,0.163 4.796,0.055 4.582,0 4.338,0 4.121,0 3.89,0.058 3.646,0.173 3.401,0.289 3.157,0.415 2.913,0.55 2.668,0.686 2.434,0.812 2.209,0.927 1.986,1.042 1.792,1.1 1.629,1.1 1.276,1.1 1.032,0.991 0.896,0.774 0.76,0.557 0.665,0.299 0.611,0 Z m 2.953,-14.867 c 0.896,0 1.734,0.177 2.515,0.53 0.781,0.353 1.456,0.832 2.027,1.436 0.57,0.604 1.018,1.303 1.344,2.097 0.326,0.795 0.489,1.64 0.489,2.536 0,0.896 -0.163,1.741 -0.489,2.535 -0.326,0.795 -0.774,1.494 -1.344,2.098 -0.571,0.604 -1.246,1.083 -2.027,1.436 -0.781,0.353 -1.619,0.53 -2.515,0.53 -0.91,0 -1.751,-0.177 -2.525,-0.53 -0.774,-0.353 -1.443,-0.832 -2.006,-1.436 -0.564,-0.604 -1.005,-1.303 -1.324,-2.098 -0.319,-0.794 -0.479,-1.639 -0.479,-2.535 0,-0.896 0.16,-1.741 0.479,-2.536 0.319,-0.794 0.76,-1.493 1.324,-2.097 0.563,-0.604 1.232,-1.083 2.006,-1.436 0.774,-0.353 1.615,-0.53 2.525,-0.53 z m 0,-0.774 c -1.018,0 -1.965,0.194 -2.841,0.581 -0.876,0.387 -1.64,0.916 -2.291,1.588 -0.652,0.672 -1.165,1.456 -1.538,2.353 -0.373,0.896 -0.56,1.846 -0.56,2.851 0,1.004 0.187,1.955 0.56,2.851 0.373,0.896 0.886,1.68 1.538,2.353 0.651,0.671 1.415,1.201 2.291,1.588 0.876,0.387 1.823,0.58 2.841,0.58 1.018,0 1.968,-0.193 2.851,-0.58 0.883,-0.387 1.65,-0.917 2.302,-1.588 0.651,-0.673 1.167,-1.457 1.547,-2.353 0.38,-0.896 0.571,-1.847 0.571,-2.851 0,-1.005 -0.191,-1.955 -0.571,-2.851 -0.38,-0.897 -0.896,-1.681 -1.547,-2.353 -0.652,-0.672 -1.419,-1.201 -2.302,-1.588 -0.883,-0.387 -1.833,-0.581 -2.851,-0.581 z"
             style="fill:none;stroke:#221f20;stroke-width:0.5;stroke-linecap:butt;stroke-linejoin:miter;stroke-miterlimit:10;stroke-dasharray:none;stroke-opacity:1"
             id="path88"
             inkscape:connector-curvature="0" /></g><g
           id="g90"
           transform="translate(202.0093,595.035)"><path
             d="m 0,0 h -7.82 c 0,-1.045 0.203,-1.958 0.611,-2.739 0.407,-0.781 0.926,-1.429 1.558,-1.945 0.631,-0.516 1.334,-0.903 2.107,-1.161 0.774,-0.258 1.521,-0.387 2.241,-0.387 H 0 v -0.733 h -1.629 c -0.883,0 -1.748,0.156 -2.597,0.468 -0.848,0.312 -1.602,0.77 -2.26,1.375 -0.659,0.604 -1.189,1.348 -1.589,2.23 -0.401,0.883 -0.601,1.901 -0.601,3.055 0,1.154 0.2,2.172 0.601,3.055 0.4,0.883 0.93,1.626 1.589,2.23 0.658,0.604 1.412,1.062 2.26,1.375 0.849,0.312 1.714,0.468 2.597,0.468 H 0 V 6.558 H -1.589 C -2.498,6.558 -3.333,6.385 -4.093,6.039 -4.854,5.692 -5.509,5.241 -6.059,4.684 -6.609,4.127 -7.04,3.503 -7.352,2.811 -7.665,2.118 -7.82,1.426 -7.82,0.733 H 0 Z"
             style="fill:#231f20;fill-opacity:1;fill-rule:nonzero;stroke:none"
             id="path92"
             inkscape:connector-curvature="0" /></g><g
           id="g94"
           transform="translate(202.0093,595.035)"><path
             d="m 0,0 h -7.82 c 0,-1.045 0.203,-1.958 0.611,-2.739 0.407,-0.781 0.926,-1.429 1.558,-1.945 0.631,-0.516 1.334,-0.903 2.107,-1.161 0.774,-0.258 1.521,-0.387 2.241,-0.387 H 0 v -0.733 h -1.629 c -0.883,0 -1.748,0.156 -2.597,0.468 -0.848,0.312 -1.602,0.77 -2.26,1.375 -0.659,0.604 -1.189,1.348 -1.589,2.23 -0.401,0.883 -0.601,1.901 -0.601,3.055 0,1.154 0.2,2.172 0.601,3.055 0.4,0.883 0.93,1.626 1.589,2.23 0.658,0.604 1.412,1.062 2.26,1.375 0.849,0.312 1.714,0.468 2.597,0.468 H 0 V 6.558 H -1.589 C -2.498,6.558 -3.333,6.385 -4.093,6.039 -4.854,5.692 -5.509,5.241 -6.059,4.684 -6.609,4.127 -7.04,3.503 -7.352,2.811 -7.665,2.118 -7.82,1.426 -7.82,0.733 H 0 Z"
             style="fill:none;stroke:#221f20;stroke-width:0.5;stroke-linecap:butt;stroke-linejoin:miter;stroke-miterlimit:10;stroke-dasharray:none;stroke-opacity:1"
             id="path96"
             inkscape:connector-curvature="0" /></g><g
           id="g98"
           transform="translate(216.6929,601.5521)"><path
             d="m 0,0 h -4.725 c -0.597,0 -1.096,-0.058 -1.497,-0.173 -0.4,-0.116 -0.723,-0.282 -0.967,-0.499 -0.245,-0.218 -0.417,-0.482 -0.519,-0.794 -0.102,-0.313 -0.153,-0.659 -0.153,-1.039 0,-0.543 0.125,-0.995 0.377,-1.354 0.251,-0.36 0.58,-0.656 0.987,-0.886 0.408,-0.231 0.869,-0.428 1.385,-0.59 0.516,-0.164 1.046,-0.324 1.589,-0.479 0.543,-0.157 1.072,-0.33 1.588,-0.519 0.517,-0.191 0.978,-0.436 1.385,-0.734 0.407,-0.299 0.737,-0.672 0.988,-1.12 0.251,-0.448 0.377,-1.012 0.377,-1.69 0,-1.195 -0.391,-2.095 -1.171,-2.699 -0.781,-0.604 -1.871,-0.906 -3.269,-0.906 h -5.132 v 0.774 h 5.01 c 1.167,0 2.07,0.23 2.708,0.692 0.639,0.462 0.957,1.134 0.957,2.016 0,0.598 -0.125,1.09 -0.376,1.477 -0.251,0.387 -0.581,0.71 -0.988,0.967 -0.407,0.258 -0.869,0.469 -1.385,0.632 -0.516,0.163 -1.045,0.319 -1.588,0.468 -0.543,0.149 -1.073,0.316 -1.589,0.499 -0.516,0.183 -0.977,0.42 -1.385,0.713 -0.407,0.292 -0.736,0.662 -0.987,1.11 -0.252,0.448 -0.377,1.018 -0.377,1.711 0,0.542 0.098,1.014 0.295,1.415 0.197,0.401 0.462,0.733 0.795,0.998 0.332,0.264 0.722,0.461 1.17,0.591 0.449,0.128 0.93,0.193 1.447,0.193 H 0 Z"
             style="fill:#231f20;fill-opacity:1;fill-rule:nonzero;stroke:none"
             id="path100"
             inkscape:connector-curvature="0" /></g><g
           id="g102"
           transform="translate(216.6929,601.5521)"><path
             d="m 0,0 h -4.725 c -0.597,0 -1.096,-0.058 -1.497,-0.173 -0.4,-0.116 -0.723,-0.282 -0.967,-0.499 -0.245,-0.218 -0.417,-0.482 -0.519,-0.794 -0.102,-0.313 -0.153,-0.659 -0.153,-1.039 0,-0.543 0.125,-0.995 0.377,-1.354 0.251,-0.36 0.58,-0.656 0.987,-0.886 0.408,-0.231 0.869,-0.428 1.385,-0.59 0.516,-0.164 1.046,-0.324 1.589,-0.479 0.543,-0.157 1.072,-0.33 1.588,-0.519 0.517,-0.191 0.978,-0.436 1.385,-0.734 0.407,-0.299 0.737,-0.672 0.988,-1.12 0.251,-0.448 0.377,-1.012 0.377,-1.69 0,-1.195 -0.391,-2.095 -1.171,-2.699 -0.781,-0.604 -1.871,-0.906 -3.269,-0.906 h -5.132 v 0.774 h 5.01 c 1.167,0 2.07,0.23 2.708,0.692 0.639,0.462 0.957,1.134 0.957,2.016 0,0.598 -0.125,1.09 -0.376,1.477 -0.251,0.387 -0.581,0.71 -0.988,0.967 -0.407,0.258 -0.869,0.469 -1.385,0.632 -0.516,0.163 -1.045,0.319 -1.588,0.468 -0.543,0.149 -1.073,0.316 -1.589,0.499 -0.516,0.183 -0.977,0.42 -1.385,0.713 -0.407,0.292 -0.736,0.662 -0.987,1.11 -0.252,0.448 -0.377,1.018 -0.377,1.711 0,0.542 0.098,1.014 0.295,1.415 0.197,0.401 0.462,0.733 0.795,0.998 0.332,0.264 0.722,0.461 1.17,0.591 0.449,0.128 0.93,0.193 1.447,0.193 H 0 Z"
             style="fill:none;stroke:#221f20;stroke-width:0.5;stroke-linecap:butt;stroke-linejoin:miter;stroke-miterlimit:10;stroke-dasharray:none;stroke-opacity:1"
             id="path104"
             inkscape:connector-curvature="0" /></g><g
           id="g106"
           transform="translate(237.1401,588.0702)"><path
             d="m 0,0 h -0.855 v 13.522 h -4.053 v 0.734 H 4.053 V 13.522 H 0 Z"
             style="fill:#231f20;fill-opacity:1;fill-rule:nonzero;stroke:none"
             id="path108"
             inkscape:connector-curvature="0" /></g><g
           id="g110"
           transform="translate(237.1401,588.0702)"><path
             d="m 0,0 h -0.855 v 13.522 h -4.053 v 0.734 H 4.053 V 13.522 H 0 Z"
             style="fill:none;stroke:#221f20;stroke-width:0.5;stroke-linecap:butt;stroke-linejoin:miter;stroke-miterlimit:10;stroke-dasharray:none;stroke-opacity:1"
             id="path112"
             inkscape:connector-curvature="0" /></g><g
           id="g114"
           transform="translate(254.5122,595.035)"><path
             d="m 0,0 h -7.82 c 0,-1.045 0.203,-1.958 0.611,-2.739 0.407,-0.781 0.926,-1.429 1.557,-1.945 0.631,-0.516 1.335,-0.903 2.109,-1.161 0.773,-0.258 1.52,-0.387 2.24,-0.387 H 0 v -0.733 h -1.629 c -0.883,0 -1.748,0.156 -2.597,0.468 -0.849,0.312 -1.602,0.77 -2.261,1.375 -0.659,0.604 -1.188,1.348 -1.588,2.23 -0.401,0.883 -0.601,1.901 -0.601,3.055 0,1.154 0.2,2.172 0.601,3.055 0.4,0.883 0.929,1.626 1.588,2.23 0.659,0.604 1.412,1.062 2.261,1.375 0.849,0.312 1.714,0.468 2.597,0.468 H 0 V 6.558 h -1.589 c -0.91,0 -1.744,-0.173 -2.505,-0.519 C -4.854,5.692 -5.509,5.241 -6.059,4.684 -6.608,4.127 -7.04,3.503 -7.352,2.811 -7.665,2.118 -7.82,1.426 -7.82,0.733 H 0 Z"
             style="fill:#231f20;fill-opacity:1;fill-rule:nonzero;stroke:none"
             id="path116"
             inkscape:connector-curvature="0" /></g><g
           id="g118"
           transform="translate(254.5122,595.035)"><path
             d="m 0,0 h -7.82 c 0,-1.045 0.203,-1.958 0.611,-2.739 0.407,-0.781 0.926,-1.429 1.557,-1.945 0.631,-0.516 1.335,-0.903 2.109,-1.161 0.773,-0.258 1.52,-0.387 2.24,-0.387 H 0 v -0.733 h -1.629 c -0.883,0 -1.748,0.156 -2.597,0.468 -0.849,0.312 -1.602,0.77 -2.261,1.375 -0.659,0.604 -1.188,1.348 -1.588,2.23 -0.401,0.883 -0.601,1.901 -0.601,3.055 0,1.154 0.2,2.172 0.601,3.055 0.4,0.883 0.929,1.626 1.588,2.23 0.659,0.604 1.412,1.062 2.261,1.375 0.849,0.312 1.714,0.468 2.597,0.468 H 0 V 6.558 h -1.589 c -0.91,0 -1.744,-0.173 -2.505,-0.519 C -4.854,5.692 -5.509,5.241 -6.059,4.684 -6.608,4.127 -7.04,3.503 -7.352,2.811 -7.665,2.118 -7.82,1.426 -7.82,0.733 H 0 Z"
             style="fill:none;stroke:#221f20;stroke-width:0.5;stroke-linecap:butt;stroke-linejoin:miter;stroke-miterlimit:10;stroke-dasharray:none;stroke-opacity:1"
             id="path120"
             inkscape:connector-curvature="0" /></g><g
           id="g122"
           transform="translate(269.2368,588.0702)"><path
             d="m 0,0 h -1.813 c -0.883,0 -1.748,0.156 -2.596,0.468 -0.849,0.312 -1.602,0.77 -2.26,1.375 -0.66,0.604 -1.189,1.347 -1.589,2.23 -0.401,0.883 -0.601,1.901 -0.601,3.055 0,1.154 0.2,2.172 0.601,3.055 0.4,0.882 0.929,1.626 1.589,2.23 0.658,0.604 1.411,1.062 2.26,1.375 0.848,0.312 1.713,0.468 2.596,0.468 H 0.02 v -0.734 h -1.67 c -0.746,0 -1.496,-0.128 -2.25,-0.386 -0.753,-0.259 -1.43,-0.652 -2.027,-1.181 -0.597,-0.53 -1.086,-1.195 -1.466,-1.997 -0.38,-0.801 -0.57,-1.744 -0.57,-2.83 0,-1.086 0.19,-2.03 0.57,-2.831 0.38,-0.801 0.869,-1.466 1.466,-1.996 C -5.33,1.771 -4.653,1.377 -3.9,1.12 -3.146,0.862 -2.396,0.733 -1.65,0.733 H 0 Z"
             style="fill:#231f20;fill-opacity:1;fill-rule:nonzero;stroke:none"
             id="path124"
             inkscape:connector-curvature="0" /></g><g
           id="g126"
           transform="translate(269.2368,588.0702)"><path
             d="m 0,0 h -1.813 c -0.883,0 -1.748,0.156 -2.596,0.468 -0.849,0.312 -1.602,0.77 -2.26,1.375 -0.66,0.604 -1.189,1.347 -1.589,2.23 -0.401,0.883 -0.601,1.901 -0.601,3.055 0,1.154 0.2,2.172 0.601,3.055 0.4,0.882 0.929,1.626 1.589,2.23 0.658,0.604 1.411,1.062 2.26,1.375 0.848,0.312 1.713,0.468 2.596,0.468 H 0.02 v -0.734 h -1.67 c -0.746,0 -1.496,-0.128 -2.25,-0.386 -0.753,-0.259 -1.43,-0.652 -2.027,-1.181 -0.597,-0.53 -1.086,-1.195 -1.466,-1.997 -0.38,-0.801 -0.57,-1.744 -0.57,-2.83 0,-1.086 0.19,-2.03 0.57,-2.831 0.38,-0.801 0.869,-1.466 1.466,-1.996 C -5.33,1.771 -4.653,1.377 -3.9,1.12 -3.146,0.862 -2.396,0.733 -1.65,0.733 H 0 Z"
             style="fill:none;stroke:#221f20;stroke-width:0.5;stroke-linecap:butt;stroke-linejoin:miter;stroke-miterlimit:10;stroke-dasharray:none;stroke-opacity:1"
             id="path128"
             inkscape:connector-curvature="0" /></g><g
           id="g130"
           transform="translate(275.2036,588.0702)"><path
             d="m 0,0 v 13.36 c 0,0.271 0.075,0.53 0.224,0.774 0.15,0.244 0.428,0.366 0.835,0.366 0.271,0 0.499,-0.051 0.682,-0.152 0.183,-0.102 0.363,-0.336 0.54,-0.703 L 8.248,0.896 c 0.095,-0.19 0.21,-0.285 0.347,-0.285 0.149,0 0.223,0.129 0.223,0.387 V 14.5 H 9.674 V 0.774 c 0,-0.679 -0.347,-1.019 -1.039,-1.019 -0.394,0 -0.686,0.113 -0.875,0.336 C 7.569,0.315 7.426,0.529 7.332,0.733 L 1.67,12.932 C 1.521,13.244 1.408,13.455 1.333,13.563 1.259,13.672 1.182,13.727 1.1,13.727 0.937,13.727 0.855,13.604 0.855,13.36 V 0 Z"
             style="fill:#231f20;fill-opacity:1;fill-rule:nonzero;stroke:none"
             id="path132"
             inkscape:connector-curvature="0" /></g><g
           id="g134"
           transform="translate(275.2036,588.0702)"><path
             d="m 0,0 v 13.36 c 0,0.271 0.075,0.53 0.224,0.774 0.15,0.244 0.428,0.366 0.835,0.366 0.271,0 0.499,-0.051 0.682,-0.152 0.183,-0.102 0.363,-0.336 0.54,-0.703 L 8.248,0.896 c 0.095,-0.19 0.21,-0.285 0.347,-0.285 0.149,0 0.223,0.129 0.223,0.387 V 14.5 H 9.674 V 0.774 c 0,-0.679 -0.347,-1.019 -1.039,-1.019 -0.394,0 -0.686,0.113 -0.875,0.336 C 7.569,0.315 7.426,0.529 7.332,0.733 L 1.67,12.932 C 1.521,13.244 1.408,13.455 1.333,13.563 1.259,13.672 1.182,13.727 1.1,13.727 0.937,13.727 0.855,13.604 0.855,13.36 V 0 Z"
             style="fill:none;stroke:#221f20;stroke-width:0.5;stroke-linecap:butt;stroke-linejoin:miter;stroke-miterlimit:10;stroke-dasharray:none;stroke-opacity:1"
             id="path136"
             inkscape:connector-curvature="0" /></g><g
           id="g138"
           transform="translate(298.2378,588.5995)"><path
             d="m 0,0 c 0.896,0 1.734,0.176 2.515,0.529 0.78,0.353 1.456,0.832 2.027,1.436 0.57,0.604 1.018,1.304 1.343,2.098 0.326,0.794 0.49,1.64 0.49,2.536 0,0.896 -0.164,1.741 -0.49,2.535 -0.325,0.794 -0.773,1.493 -1.343,2.098 -0.571,0.604 -1.247,1.082 -2.027,1.435 -0.781,0.354 -1.619,0.53 -2.515,0.53 -0.91,0 -1.752,-0.176 -2.526,-0.53 C -3.3,12.314 -3.968,11.836 -4.532,11.232 -5.095,10.627 -5.537,9.928 -5.855,9.134 -6.174,8.34 -6.334,7.495 -6.334,6.599 c 0,-0.896 0.16,-1.742 0.479,-2.536 0.318,-0.794 0.76,-1.494 1.323,-2.098 C -3.968,1.361 -3.3,0.882 -2.526,0.529 -1.752,0.176 -0.91,0 0,0 m 0,-0.774 c -1.018,0 -1.965,0.194 -2.841,0.581 -0.876,0.386 -1.639,0.916 -2.291,1.588 -0.652,0.672 -1.165,1.456 -1.538,2.353 -0.373,0.896 -0.56,1.846 -0.56,2.851 0,1.004 0.187,1.955 0.56,2.851 0.373,0.896 0.886,1.68 1.538,2.352 0.652,0.672 1.415,1.201 2.291,1.589 0.876,0.386 1.823,0.58 2.841,0.58 1.018,0 1.968,-0.194 2.851,-0.58 C 3.733,13.003 4.5,12.474 5.153,11.802 5.804,11.13 6.32,10.346 6.7,9.45 7.081,8.554 7.27,7.603 7.27,6.599 7.27,5.594 7.081,4.644 6.7,3.748 6.32,2.851 5.804,2.067 5.153,1.395 4.5,0.723 3.733,0.193 2.851,-0.193 1.968,-0.58 1.018,-0.774 0,-0.774"
             style="fill:#231f20;fill-opacity:1;fill-rule:nonzero;stroke:none"
             id="path140"
             inkscape:connector-curvature="0" /></g><g
           id="g142"
           transform="translate(298.2378,588.5995)"><path
             d="m 0,0 c 0.896,0 1.734,0.176 2.515,0.529 0.78,0.353 1.456,0.832 2.027,1.436 0.57,0.604 1.018,1.304 1.343,2.098 0.326,0.794 0.49,1.64 0.49,2.536 0,0.896 -0.164,1.741 -0.49,2.535 -0.325,0.794 -0.773,1.493 -1.343,2.098 -0.571,0.604 -1.247,1.082 -2.027,1.435 -0.781,0.354 -1.619,0.53 -2.515,0.53 -0.91,0 -1.752,-0.176 -2.526,-0.53 C -3.3,12.314 -3.968,11.836 -4.532,11.232 -5.095,10.627 -5.537,9.928 -5.855,9.134 -6.174,8.34 -6.334,7.495 -6.334,6.599 c 0,-0.896 0.16,-1.742 0.479,-2.536 0.318,-0.794 0.76,-1.494 1.323,-2.098 C -3.968,1.361 -3.3,0.882 -2.526,0.529 -1.752,0.176 -0.91,0 0,0 Z m 0,-0.774 c -1.018,0 -1.965,0.194 -2.841,0.581 -0.876,0.386 -1.639,0.916 -2.291,1.588 -0.652,0.672 -1.165,1.456 -1.538,2.353 -0.373,0.896 -0.56,1.846 -0.56,2.851 0,1.004 0.187,1.955 0.56,2.851 0.373,0.896 0.886,1.68 1.538,2.352 0.652,0.672 1.415,1.201 2.291,1.589 0.876,0.386 1.823,0.58 2.841,0.58 1.018,0 1.968,-0.194 2.851,-0.58 C 3.733,13.003 4.5,12.474 5.153,11.802 5.804,11.13 6.32,10.346 6.7,9.45 7.081,8.554 7.27,7.603 7.27,6.599 7.27,5.594 7.081,4.644 6.7,3.748 6.32,2.851 5.804,2.067 5.153,1.395 4.5,0.723 3.733,0.193 2.851,-0.193 1.968,-0.58 1.018,-0.774 0,-0.774 Z"
             style="fill:none;stroke:#221f20;stroke-width:0.5;stroke-linecap:butt;stroke-linejoin:miter;stroke-miterlimit:10;stroke-dasharray:none;stroke-opacity:1"
             id="path144"
             inkscape:connector-curvature="0" /></g><g
           id="g146"
           transform="translate(312.4121,602.326)"><path
             d="m 0,0 v -10.02 c 0,-0.502 0.074,-0.967 0.224,-1.395 0.149,-0.428 0.356,-0.798 0.622,-1.11 0.263,-0.312 0.587,-0.557 0.966,-0.733 0.38,-0.177 0.808,-0.265 1.284,-0.265 h 2.708 v -0.733 H 2.811 c -0.435,0 -0.874,0.088 -1.314,0.265 -0.441,0.176 -0.835,0.441 -1.182,0.794 -0.346,0.353 -0.627,0.791 -0.844,1.314 -0.218,0.522 -0.326,1.13 -0.326,1.822 V 0 Z"
             style="fill:#231f20;fill-opacity:1;fill-rule:nonzero;stroke:none"
             id="path148"
             inkscape:connector-curvature="0" /></g><g
           id="g150"
           transform="translate(312.4121,602.326)"><path
             d="m 0,0 v -10.02 c 0,-0.502 0.074,-0.967 0.224,-1.395 0.149,-0.428 0.356,-0.798 0.622,-1.11 0.263,-0.312 0.587,-0.557 0.966,-0.733 0.38,-0.177 0.808,-0.265 1.284,-0.265 h 2.708 v -0.733 H 2.811 c -0.435,0 -0.874,0.088 -1.314,0.265 -0.441,0.176 -0.835,0.441 -1.182,0.794 -0.346,0.353 -0.627,0.791 -0.844,1.314 -0.218,0.522 -0.326,1.13 -0.326,1.822 V 0 Z"
             style="fill:none;stroke:#221f20;stroke-width:0.5;stroke-linecap:butt;stroke-linejoin:miter;stroke-miterlimit:10;stroke-dasharray:none;stroke-opacity:1"
             id="path152"
             inkscape:connector-curvature="0" /></g><g
           id="g154"
           transform="translate(329.0098,603.161)"><path
             d="M 0,0 2.424,2.811 H 3.462 L 0.754,0 Z m 1.141,-14.562 c 0.895,0 1.733,0.177 2.514,0.53 0.782,0.353 1.456,0.832 2.027,1.436 0.571,0.604 1.018,1.303 1.343,2.097 0.327,0.795 0.49,1.64 0.49,2.536 0,0.896 -0.163,1.741 -0.49,2.535 -0.325,0.795 -0.772,1.494 -1.343,2.098 -0.571,0.604 -1.245,1.083 -2.027,1.436 -0.781,0.353 -1.619,0.53 -2.514,0.53 -0.911,0 -1.752,-0.177 -2.526,-0.53 -0.774,-0.353 -1.442,-0.832 -2.007,-1.436 -0.562,-0.604 -1.004,-1.303 -1.323,-2.098 -0.319,-0.794 -0.478,-1.639 -0.478,-2.535 0,-0.896 0.159,-1.741 0.478,-2.536 0.319,-0.794 0.761,-1.493 1.323,-2.097 0.565,-0.604 1.233,-1.083 2.007,-1.436 0.774,-0.353 1.615,-0.53 2.526,-0.53 m 0,-0.773 c -1.019,0 -1.966,0.193 -2.841,0.58 -0.877,0.387 -1.64,0.917 -2.291,1.588 -0.653,0.672 -1.165,1.457 -1.538,2.353 -0.373,0.896 -0.561,1.846 -0.561,2.851 0,1.005 0.188,1.955 0.561,2.851 0.373,0.896 0.885,1.68 1.538,2.353 0.651,0.672 1.414,1.201 2.291,1.588 0.875,0.387 1.822,0.581 2.841,0.581 1.018,0 1.968,-0.194 2.851,-0.581 0.882,-0.387 1.65,-0.916 2.301,-1.588 0.651,-0.673 1.168,-1.457 1.548,-2.353 0.38,-0.896 0.57,-1.846 0.57,-2.851 0,-1.005 -0.19,-1.955 -0.57,-2.851 -0.38,-0.896 -0.897,-1.681 -1.548,-2.353 -0.651,-0.671 -1.419,-1.201 -2.301,-1.588 -0.883,-0.387 -1.833,-0.58 -2.851,-0.58"
             style="fill:#231f20;fill-opacity:1;fill-rule:nonzero;stroke:none"
             id="path156"
             inkscape:connector-curvature="0" /></g><g
           id="g158"
           transform="translate(329.0098,603.161)"><path
             d="M 0,0 2.424,2.811 H 3.462 L 0.754,0 Z m 1.141,-14.562 c 0.895,0 1.733,0.177 2.514,0.53 0.782,0.353 1.456,0.832 2.027,1.436 0.571,0.604 1.018,1.303 1.343,2.097 0.327,0.795 0.49,1.64 0.49,2.536 0,0.896 -0.163,1.741 -0.49,2.535 -0.325,0.795 -0.772,1.494 -1.343,2.098 -0.571,0.604 -1.245,1.083 -2.027,1.436 -0.781,0.353 -1.619,0.53 -2.514,0.53 -0.911,0 -1.752,-0.177 -2.526,-0.53 -0.774,-0.353 -1.442,-0.832 -2.007,-1.436 -0.562,-0.604 -1.004,-1.303 -1.323,-2.098 -0.319,-0.794 -0.478,-1.639 -0.478,-2.535 0,-0.896 0.159,-1.741 0.478,-2.536 0.319,-0.794 0.761,-1.493 1.323,-2.097 0.565,-0.604 1.233,-1.083 2.007,-1.436 0.774,-0.353 1.615,-0.53 2.526,-0.53 z m 0,-0.773 c -1.019,0 -1.966,0.193 -2.841,0.58 -0.877,0.387 -1.64,0.917 -2.291,1.588 -0.653,0.672 -1.165,1.457 -1.538,2.353 -0.373,0.896 -0.561,1.846 -0.561,2.851 0,1.005 0.188,1.955 0.561,2.851 0.373,0.896 0.885,1.68 1.538,2.353 0.651,0.672 1.414,1.201 2.291,1.588 0.875,0.387 1.822,0.581 2.841,0.581 1.018,0 1.968,-0.194 2.851,-0.581 0.882,-0.387 1.65,-0.916 2.301,-1.588 0.651,-0.673 1.168,-1.457 1.548,-2.353 0.38,-0.896 0.57,-1.846 0.57,-2.851 0,-1.005 -0.19,-1.955 -0.57,-2.851 -0.38,-0.896 -0.897,-1.681 -1.548,-2.353 -0.651,-0.671 -1.419,-1.201 -2.301,-1.588 -0.883,-0.387 -1.833,-0.58 -2.851,-0.58 z"
             style="fill:none;stroke:#221f20;stroke-width:0.5;stroke-linecap:butt;stroke-linejoin:miter;stroke-miterlimit:10;stroke-dasharray:none;stroke-opacity:1"
             id="path160"
             inkscape:connector-curvature="0" /></g><g
           id="g162"
           transform="translate(355.0176,599.6176)"><path
             d="m 0,0 c -0.584,0.706 -1.311,1.246 -2.18,1.619 -0.869,0.373 -1.792,0.56 -2.769,0.56 -0.91,0 -1.751,-0.177 -2.526,-0.53 -0.774,-0.353 -1.442,-0.831 -2.005,-1.435 -0.564,-0.605 -1.005,-1.304 -1.325,-2.098 -0.318,-0.794 -0.477,-1.639 -0.477,-2.535 0,-0.896 0.159,-1.742 0.477,-2.536 0.32,-0.795 0.761,-1.494 1.325,-2.098 0.563,-0.604 1.231,-1.083 2.005,-1.436 0.775,-0.353 1.616,-0.529 2.526,-0.529 0.868,0 1.677,0.163 2.423,0.489 0.747,0.325 1.395,0.774 1.945,1.344 0.551,0.57 0.984,1.239 1.304,2.006 0.318,0.767 0.492,1.592 0.519,2.474 h -6.191 v 0.733 H 2.138 C 2.166,-5.18 1.992,-6.27 1.619,-7.24 1.245,-8.211 0.732,-9.032 0.081,-9.705 c -0.651,-0.671 -1.412,-1.188 -2.281,-1.547 -0.868,-0.36 -1.785,-0.54 -2.749,-0.54 -1.018,0 -1.965,0.194 -2.841,0.581 -0.876,0.386 -1.64,0.916 -2.291,1.588 -0.652,0.672 -1.165,1.456 -1.538,2.352 -0.373,0.896 -0.561,1.847 -0.561,2.852 0,1.004 0.188,1.955 0.561,2.851 0.373,0.896 0.886,1.68 1.538,2.352 0.651,0.672 1.415,1.201 2.291,1.589 0.876,0.386 1.823,0.58 2.841,0.58 1.086,0 2.114,-0.201 3.086,-0.601 0.97,-0.401 1.788,-0.981 2.454,-1.741 z"
             style="fill:#231f20;fill-opacity:1;fill-rule:nonzero;stroke:none"
             id="path164"
             inkscape:connector-curvature="0" /></g><g
           id="g166"
           transform="translate(355.0176,599.6176)"><path
             d="m 0,0 c -0.584,0.706 -1.311,1.246 -2.18,1.619 -0.869,0.373 -1.792,0.56 -2.769,0.56 -0.91,0 -1.751,-0.177 -2.526,-0.53 -0.774,-0.353 -1.442,-0.831 -2.005,-1.435 -0.564,-0.605 -1.005,-1.304 -1.325,-2.098 -0.318,-0.794 -0.477,-1.639 -0.477,-2.535 0,-0.896 0.159,-1.742 0.477,-2.536 0.32,-0.795 0.761,-1.494 1.325,-2.098 0.563,-0.604 1.231,-1.083 2.005,-1.436 0.775,-0.353 1.616,-0.529 2.526,-0.529 0.868,0 1.677,0.163 2.423,0.489 0.747,0.325 1.395,0.774 1.945,1.344 0.551,0.57 0.984,1.239 1.304,2.006 0.318,0.767 0.492,1.592 0.519,2.474 h -6.191 v 0.733 H 2.138 C 2.166,-5.18 1.992,-6.27 1.619,-7.24 1.245,-8.211 0.732,-9.032 0.081,-9.705 c -0.651,-0.671 -1.412,-1.188 -2.281,-1.547 -0.868,-0.36 -1.785,-0.54 -2.749,-0.54 -1.018,0 -1.965,0.194 -2.841,0.581 -0.876,0.386 -1.64,0.916 -2.291,1.588 -0.652,0.672 -1.165,1.456 -1.538,2.352 -0.373,0.896 -0.561,1.847 -0.561,2.852 0,1.004 0.188,1.955 0.561,2.851 0.373,0.896 0.886,1.68 1.538,2.352 0.651,0.672 1.415,1.201 2.291,1.589 0.876,0.386 1.823,0.58 2.841,0.58 1.086,0 2.114,-0.201 3.086,-0.601 0.97,-0.401 1.788,-0.981 2.454,-1.741 z"
             style="fill:none;stroke:#221f20;stroke-width:0.5;stroke-linecap:butt;stroke-linejoin:miter;stroke-miterlimit:10;stroke-dasharray:none;stroke-opacity:1"
             id="path168"
             inkscape:connector-curvature="0" /></g><path
           d="m 363.917,602.326 h 0.855 V 588.07 h -0.855 z"
           style="fill:#231f20;fill-opacity:1;fill-rule:nonzero;stroke:#221f20;stroke-width:0.5;stroke-linecap:butt;stroke-linejoin:miter;stroke-miterlimit:10;stroke-dasharray:none;stroke-opacity:1"
           id="path170"
           inkscape:connector-curvature="0" /><g
           id="g172"
           transform="translate(380.3516,588.0702)"><path
             d="m 0,0 h -1.812 c -0.883,0 -1.749,0.156 -2.596,0.468 -0.849,0.312 -1.603,0.77 -2.261,1.375 -0.659,0.604 -1.188,1.347 -1.589,2.23 -0.4,0.883 -0.6,1.901 -0.6,3.055 0,1.154 0.2,2.172 0.6,3.055 0.401,0.882 0.93,1.626 1.589,2.23 0.658,0.604 1.412,1.062 2.261,1.375 0.847,0.312 1.713,0.468 2.596,0.468 h 1.833 v -0.734 h -1.67 c -0.747,0 -1.497,-0.128 -2.25,-0.386 -0.753,-0.259 -1.43,-0.652 -2.027,-1.181 -0.597,-0.53 -1.087,-1.195 -1.467,-1.997 -0.379,-0.801 -0.57,-1.744 -0.57,-2.83 0,-1.086 0.191,-2.03 0.57,-2.831 0.38,-0.801 0.87,-1.466 1.467,-1.996 0.597,-0.53 1.274,-0.924 2.027,-1.181 0.753,-0.258 1.503,-0.387 2.25,-0.387 H 0 Z"
             style="fill:#231f20;fill-opacity:1;fill-rule:nonzero;stroke:none"
             id="path174"
             inkscape:connector-curvature="0" /></g><g
           id="g176"
           transform="translate(380.3516,588.0702)"><path
             d="m 0,0 h -1.812 c -0.883,0 -1.749,0.156 -2.596,0.468 -0.849,0.312 -1.603,0.77 -2.261,1.375 -0.659,0.604 -1.188,1.347 -1.589,2.23 -0.4,0.883 -0.6,1.901 -0.6,3.055 0,1.154 0.2,2.172 0.6,3.055 0.401,0.882 0.93,1.626 1.589,2.23 0.658,0.604 1.412,1.062 2.261,1.375 0.847,0.312 1.713,0.468 2.596,0.468 h 1.833 v -0.734 h -1.67 c -0.747,0 -1.497,-0.128 -2.25,-0.386 -0.753,-0.259 -1.43,-0.652 -2.027,-1.181 -0.597,-0.53 -1.087,-1.195 -1.467,-1.997 -0.379,-0.801 -0.57,-1.744 -0.57,-2.83 0,-1.086 0.191,-2.03 0.57,-2.831 0.38,-0.801 0.87,-1.466 1.467,-1.996 0.597,-0.53 1.274,-0.924 2.027,-1.181 0.753,-0.258 1.503,-0.387 2.25,-0.387 H 0 Z"
             style="fill:none;stroke:#221f20;stroke-width:0.5;stroke-linecap:butt;stroke-linejoin:miter;stroke-miterlimit:10;stroke-dasharray:none;stroke-opacity:1"
             id="path178"
             inkscape:connector-curvature="0" /></g><g
           id="g180"
           transform="translate(396.0537,588.0702)"><path
             d="m 0,0 h -0.855 v 6.965 h -7.291 v 0.733 h 7.291 v 2.159 c 0,0.597 -0.099,1.137 -0.295,1.619 -0.198,0.482 -0.472,0.889 -0.826,1.222 -0.353,0.333 -0.777,0.587 -1.273,0.764 -0.495,0.176 -1.048,0.265 -1.659,0.265 -0.612,0 -1.164,-0.089 -1.66,-0.265 -0.495,-0.177 -0.92,-0.431 -1.273,-0.764 -0.352,-0.333 -0.628,-0.74 -0.825,-1.222 -0.196,-0.482 -0.295,-1.022 -0.295,-1.619 V 0 h -0.855 v 9.592 c 0,0.774 0.115,1.467 0.346,2.077 0.231,0.611 0.56,1.124 0.988,1.538 0.427,0.414 0.944,0.733 1.547,0.957 0.605,0.224 1.28,0.336 2.027,0.336 0.746,0 1.422,-0.112 2.026,-0.336 0.605,-0.224 1.12,-0.543 1.548,-0.957 0.428,-0.414 0.757,-0.927 0.988,-1.538 C -0.115,11.059 0,10.366 0,9.592 Z"
             style="fill:#231f20;fill-opacity:1;fill-rule:nonzero;stroke:none"
             id="path182"
             inkscape:connector-curvature="0" /></g><g
           id="g184"
           transform="translate(396.0537,588.0702)"><path
             d="m 0,0 h -0.855 v 6.965 h -7.291 v 0.733 h 7.291 v 2.159 c 0,0.597 -0.099,1.137 -0.295,1.619 -0.198,0.482 -0.472,0.889 -0.826,1.222 -0.353,0.333 -0.777,0.587 -1.273,0.764 -0.495,0.176 -1.048,0.265 -1.659,0.265 -0.612,0 -1.164,-0.089 -1.66,-0.265 -0.495,-0.177 -0.92,-0.431 -1.273,-0.764 -0.352,-0.333 -0.628,-0.74 -0.825,-1.222 -0.196,-0.482 -0.295,-1.022 -0.295,-1.619 V 0 h -0.855 v 9.592 c 0,0.774 0.115,1.467 0.346,2.077 0.231,0.611 0.56,1.124 0.988,1.538 0.427,0.414 0.944,0.733 1.547,0.957 0.605,0.224 1.28,0.336 2.027,0.336 0.746,0 1.422,-0.112 2.026,-0.336 0.605,-0.224 1.12,-0.543 1.548,-0.957 0.428,-0.414 0.757,-0.927 0.988,-1.538 C -0.115,11.059 0,10.366 0,9.592 Z"
             style="fill:none;stroke:#221f20;stroke-width:0.5;stroke-linecap:butt;stroke-linejoin:miter;stroke-miterlimit:10;stroke-dasharray:none;stroke-opacity:1"
             id="path186"
             inkscape:connector-curvature="0" /></g><g
           id="g188"
           transform="translate(411.084,601.5521)"><path
             d="m 0,0 h -4.725 c -0.598,0 -1.096,-0.058 -1.497,-0.173 -0.4,-0.116 -0.723,-0.282 -0.967,-0.499 -0.245,-0.218 -0.417,-0.482 -0.52,-0.794 -0.102,-0.313 -0.152,-0.659 -0.152,-1.039 0,-0.543 0.126,-0.995 0.377,-1.354 0.251,-0.36 0.58,-0.656 0.987,-0.886 0.407,-0.231 0.869,-0.428 1.385,-0.59 0.516,-0.164 1.046,-0.324 1.589,-0.479 0.543,-0.157 1.072,-0.33 1.588,-0.519 0.516,-0.191 0.978,-0.436 1.385,-0.734 0.407,-0.299 0.737,-0.672 0.987,-1.12 0.252,-0.448 0.377,-1.012 0.377,-1.69 0,-1.195 -0.39,-2.095 -1.17,-2.699 -0.781,-0.604 -1.871,-0.906 -3.269,-0.906 h -5.133 v 0.774 h 5.011 c 1.168,0 2.07,0.23 2.708,0.692 0.639,0.462 0.958,1.134 0.958,2.016 0,0.598 -0.126,1.09 -0.377,1.477 -0.252,0.387 -0.581,0.71 -0.988,0.967 -0.408,0.258 -0.869,0.469 -1.385,0.632 -0.516,0.163 -1.045,0.319 -1.589,0.468 -0.543,0.149 -1.072,0.316 -1.588,0.499 -0.515,0.183 -0.977,0.42 -1.385,0.713 -0.407,0.292 -0.736,0.662 -0.988,1.11 -0.251,0.448 -0.377,1.018 -0.377,1.711 0,0.542 0.099,1.014 0.296,1.415 0.196,0.401 0.461,0.733 0.795,0.998 0.331,0.264 0.722,0.461 1.17,0.591 0.449,0.128 0.93,0.193 1.446,0.193 H 0 Z"
             style="fill:#231f20;fill-opacity:1;fill-rule:nonzero;stroke:none"
             id="path190"
             inkscape:connector-curvature="0" /></g><g
           id="g192"
           transform="translate(411.084,601.5521)"><path
             d="m 0,0 h -4.725 c -0.598,0 -1.096,-0.058 -1.497,-0.173 -0.4,-0.116 -0.723,-0.282 -0.967,-0.499 -0.245,-0.218 -0.417,-0.482 -0.52,-0.794 -0.102,-0.313 -0.152,-0.659 -0.152,-1.039 0,-0.543 0.126,-0.995 0.377,-1.354 0.251,-0.36 0.58,-0.656 0.987,-0.886 0.407,-0.231 0.869,-0.428 1.385,-0.59 0.516,-0.164 1.046,-0.324 1.589,-0.479 0.543,-0.157 1.072,-0.33 1.588,-0.519 0.516,-0.191 0.978,-0.436 1.385,-0.734 0.407,-0.299 0.737,-0.672 0.987,-1.12 0.252,-0.448 0.377,-1.012 0.377,-1.69 0,-1.195 -0.39,-2.095 -1.17,-2.699 -0.781,-0.604 -1.871,-0.906 -3.269,-0.906 h -5.133 v 0.774 h 5.011 c 1.168,0 2.07,0.23 2.708,0.692 0.639,0.462 0.958,1.134 0.958,2.016 0,0.598 -0.126,1.09 -0.377,1.477 -0.252,0.387 -0.581,0.71 -0.988,0.967 -0.408,0.258 -0.869,0.469 -1.385,0.632 -0.516,0.163 -1.045,0.319 -1.589,0.468 -0.543,0.149 -1.072,0.316 -1.588,0.499 -0.515,0.183 -0.977,0.42 -1.385,0.713 -0.407,0.292 -0.736,0.662 -0.988,1.11 -0.251,0.448 -0.377,1.018 -0.377,1.711 0,0.542 0.099,1.014 0.296,1.415 0.196,0.401 0.461,0.733 0.795,0.998 0.331,0.264 0.722,0.461 1.17,0.591 0.449,0.128 0.93,0.193 1.446,0.193 H 0 Z"
             style="fill:none;stroke:#221f20;stroke-width:0.5;stroke-linecap:butt;stroke-linejoin:miter;stroke-miterlimit:10;stroke-dasharray:none;stroke-opacity:1"
             id="path194"
             inkscape:connector-curvature="0" /></g><path
           d="M 364.772,555.862 H 94.5 v 8.336 h 270.272 z"
           style="fill:#231f20;fill-opacity:1;fill-rule:nonzero;stroke:none"
           id="path196"
           inkscape:connector-curvature="0" /><path
           d="m 381.362,555.862 h -8.648 v 8.336 h 8.648 z"
           style="fill:#231f20;fill-opacity:1;fill-rule:nonzero;stroke:none"
           id="path198"
           inkscape:connector-curvature="0" /><path
           d="m 396.576,555.862 h -8.649 v 8.336 h 8.649 z"
           style="fill:#231f20;fill-opacity:1;fill-rule:nonzero;stroke:none"
           id="path200"
           inkscape:connector-curvature="0" /><path
           d="m 412.206,555.862 h -8.649 v 8.336 h 8.649 z"
           style="fill:#231f20;fill-opacity:1;fill-rule:nonzero;stroke:none"
           id="path202"
           inkscape:connector-curvature="0" /></g></g></g></svg>