<svg xmlns="http://www.w3.org/2000/svg" width="400" height="400" viewBox="0 0 400 400"><path fill="#FFF" d="M395.426 273.471c-1.289-10.507-7.135-18.656-16.066-25.046 2.207 1.577 4.074 2.91-.043-.031-5.555-3.965-2.611-1.862-.035-.024-22.021-15.686-50.746-12.199-74.74-3.486-9.617-15.681-10.035-27.646-4.494-44.764.717-2.163.227-3.363-2.027-4.329-5.477-2.341-13.359-1.103-18.869.357-1.902.499-3.287 1.468-3.709 3.385-3.982 18.731-16.232 35.888-26.91 51.679-7.52-14.412-6.922-25.564-1.865-40.576.617-1.828.332-2.8-1.496-3.771-5.609-2.901-14.217-1.477-19.934.214-6.576 1.918-16.451 34.455-19.605 40.908-6.59 13.477-12.432 34.511-23.63 45.201-9.503-12.213 17.404-39.804 8.408-50.879-3.042-3.745-8.548-3.648-12.042-.476.838-5.879 1.273-9.742-.247-14.729-1.608-5.246-5.688-8.257-11.66-8.105-13.904.408-26.148 10.675-34.492 20.396-7.94 9.352-28.881 15.164-40.141 20.805-19.341-16.85-61.209-34.729-62.3-63.419-1.18-32.333 37.333-54.275 63.045-67.396 33.439-17.078 84.96-38.329 122.957-19.653 10.082 4.956 14.139 15.584 11.363 25.766-7.238 26.552-36.467 44.267-61.891 52.391-12.508 3.999-26.246 6.975-39.482 6.201-17.736-1.038-31.547-11.763-33.441-12.429-1.583-.3-1.458 1.747-1.041 2.83 18.401 48.239 111.583 12.889 135.95-11.875 11.736-11.915 18.863-23.461 21.906-41.641 3.566-21.312-12.08-34.646-23.955-40.144-60.203-27.871-143.43 8.628-188.952 45.838-19.756 16.148-44.468 41.807-33.127 68.723 12.308 29.21 50.018 44.188 74.562 62.052-19.86 9.87-44.707 20.076-57.576 38.581-7.359 10.607-9.97 21.912-4.49 33.971 9.714 21.3 45.034 12.069 59.937 2.681 13.652-8.599 22.842-20.143 26.81-34.944 3.443-12.833 2.736-26.167-2.979-38.255l22.086-11.172c-5.947 17.83-8.574 40.181 3.771 56.292 4.947 6.441 17.784 6.702 23.038.239 6.812-8.455 11.33-19.049 15.842-28.746-.527 7.242-1.434 15.449 1.063 21.761 2.867 7.242 9.37 8.724 16.065 4.129 20.492-14.064 33.531-53.044 43.626-75.768 2.744 9.912 5.773 18.968 10.783 28.106 1.238 2.243 1.088 3.688-.615 5.56-7.482 8.247-25.363 22.003-27.096 33.146-.404 2.604 1.324 5.099 4.395 5.693 12.031 2.401 25.371-1.956 35.139-8.56 10.191-6.894 13.48-16.292 11.008-27.439-3.535-16.049 8.494-33.98 19.936-47.154 2.1 9.973 5.266 19.572 10.928 28.283-10.104 8.872-25.174 21.451-23.01 36.267.764 5.305 5.514 8.732 11.215 7.522 12.195-2.568 22.729-7.814 30.418-17.111 6.973-8.387 4.475-17.539 1.434-26.76 18.445-5.266 37.104-6.317 55.5-.021 8.883 3.02 16.037 8.112 20.281 16.084 5.197 9.77 2.27 18.77-7.766 25.192-2.539 1.626-4.297 2.961-3.438 3.664s3.785 1.633 10.264-2.436c6.479-4.069 10.438-9.567 11.453-16.786a28.711 28.711 0 0 0-.019-5.992zM87.267 292.988c-1.049 12.882-7.445 23.328-17.906 31.766-5.886 4.758-13.214 8.636-20.491 9.343-7.276.709-12.942-1.129-13.426-8.677-1.363-21.242 31.618-42.05 49.932-48.315 1.561 5.3 2.326 10.56 1.879 15.906l.012-.023zm79.661-55.98c-3.016 17.236-11.458 48.171-24.967 60.525-1.82 1.655-3.562 1.56-4.488-.597-7.993-18.589 2.836-56.919 25.56-62.837 2.671-.686 4.328.45 3.895 2.909zm54.326 63.177c6.508-6.923 13.006-13.843 19.523-20.805.805 7.742-13.576 23.151-19.523 20.805zm62.363-13.672c-1.814.982-5.889 1.942-6.049.645-1.145-9.337 9.131-19.219 15.504-23.849 3.442 8.763-.631 18.415-9.455 23.204z"/></svg>