<?xml version="1.0" encoding="iso-8859-1"?>
<!-- Generator: Adobe Illustrator 19.0.0, SVG Export Plug-In . SVG Version: 6.00 Build 0)  -->
<svg xmlns="http://www.w3.org/2000/svg" xmlns:xlink="http://www.w3.org/1999/xlink" version="1.1" id="Layer_1" x="0px" y="0px" viewBox="0 0 512 512" style="enable-background:new 0 0 512 512;" xml:space="preserve" width="512px" height="512px">
<g>
	<g>
		<g>
			<path d="M463.386,52.245H48.613C21.808,52.245,0,74.053,0,100.859v310.282c0,26.806,21.808,48.614,48.613,48.614h414.772     c26.807,0,48.615-21.808,48.615-48.614V100.859C512,74.053,490.192,52.245,463.386,52.245z M491.102,411.141     c0,15.283-12.433,27.716-27.716,27.716H48.613c-15.282,0-27.715-12.433-27.715-27.716V100.859     c0-15.283,12.433-27.716,27.715-27.716h414.772c15.284,0,27.717,12.433,27.717,27.716V411.141z" fill="#FFFFFF"/>
			<path d="M284.252,266.449v26.122c0,5.771,4.679,10.449,10.449,10.449s10.449-4.678,10.449-10.449v-26.122h26.122     c5.77,0,10.449-4.678,10.449-10.449c0-5.771-4.679-10.449-10.449-10.449H305.15v-26.122c0-5.771-4.679-10.449-10.449-10.449     s-10.449,4.678-10.449,10.449v26.122H258.13c-5.77,0-10.449,4.678-10.449,10.449c0,5.771,4.679,10.449,10.449,10.449H284.252z" fill="#FFFFFF"/>
			<path d="M373.068,266.449h26.122v26.122c0,5.771,4.679,10.449,10.449,10.449c5.77,0,10.449-4.678,10.449-10.449v-26.122h26.122     c5.77,0,10.449-4.678,10.449-10.449c0-5.771-4.679-10.449-10.449-10.449h-26.122v-26.122c0-5.771-4.679-10.449-10.449-10.449     c-5.77,0-10.449,4.678-10.449,10.449v26.122h-26.122c-5.77,0-10.449,4.678-10.449,10.449     C362.619,261.771,367.298,266.449,373.068,266.449z" fill="#FFFFFF"/>
			<path d="M224.214,324.684c3.789-4.352,3.333-10.953-1.02-14.741c-4.352-3.79-10.953-3.333-14.741,1.02     c-14.107,16.202-34.495,25.495-55.938,25.495h-2.09c-40.907,0-74.188-33.28-74.188-74.188v-12.539     c0-40.908,33.281-74.188,74.188-74.188h2.09c21.441,0,41.83,9.292,55.938,25.495c3.79,4.353,10.391,4.809,14.741,1.019     c4.353-3.789,4.809-10.389,1.02-14.741c-18.079-20.764-44.211-32.672-71.699-32.672h-2.09c-52.431,0-95.086,42.656-95.086,95.086     v12.539c0,52.43,42.655,95.086,95.086,95.086h2.09C180.004,357.355,206.136,345.447,224.214,324.684z" fill="#FFFFFF"/>
			<path d="M459.755,397.061H267.093c-5.77,0-10.449,4.678-10.449,10.449s4.679,10.449,10.449,10.449h192.662     c5.77,0,10.449-4.678,10.449-10.449S465.525,397.061,459.755,397.061z" fill="#FFFFFF"/>
			<path d="M220.421,397.061h-4.089c-5.771,0-10.449,4.678-10.449,10.449s4.678,10.449,10.449,10.449h4.089     c5.771,0,10.449-4.678,10.449-10.449S226.192,397.061,220.421,397.061z" fill="#FFFFFF"/>
		</g>
	</g>
</g>
<g>
</g>
<g>
</g>
<g>
</g>
<g>
</g>
<g>
</g>
<g>
</g>
<g>
</g>
<g>
</g>
<g>
</g>
<g>
</g>
<g>
</g>
<g>
</g>
<g>
</g>
<g>
</g>
<g>
</g>
</svg>
