<svg xmlns="http://www.w3.org/2000/svg" width="400" height="400" viewBox="0 0 400 400"><path fill="#FFF" d="M13 13v375.5h375.5V13H13zm152.115 133.215h-53.274v41.666h49.668v22.625h-49.668v64.058H87.214v-150.97h77.901v22.621zm118.539 128.348h-22.827l-11.611-44.355c-3.011-11.413-5.211-21.72-7.403-34.943h-.397c-2.009 13.446-4.621 24.202-7.41 34.943l-12.422 44.355h-23.029L169.72 165.478h25.233l10.214 49.497c2.215 11.658 4.407 23.538 6.218 35.395h.397c2.002-11.864 5.211-23.966 8.007-35.165l12.612-49.726h20.023l12.216 48.381c2.995 12.773 5.607 24.646 7.808 36.51h.397c1.604-11.864 3.805-23.736 6.401-36.51l10.818-48.381h24.24l-30.65 109.084z"/></svg>