<svg xmlns="http://www.w3.org/2000/svg" width="512" height="512" viewBox="0 0 512 512"><path fill="#FFF" d="M200.215 395.955s-19.567 11.379 13.922 15.229c40.571 4.629 61.31 3.965 106.018-4.498 0 0 11.755 7.372 28.172 13.755-100.227 42.958-226.838-2.486-148.112-24.486M187.968 339.9s-21.946 16.245 11.569 19.71c43.34 4.472 77.568 4.839 136.792-6.567 0 0 8.191 8.306 21.074 12.848-121.184 35.435-256.161 2.795-169.435-25.991m103.249-95.088c24.696 28.434-6.488 54.021-6.488 54.021s62.709-32.373 33.911-72.911c-26.899-37.802-47.524-56.587 64.14-121.347-.001-.001-175.278 43.776-91.563 140.237"/><path fill="#FFF" d="M423.778 437.421s14.479 11.93-15.948 21.158c-57.851 17.525-240.793 22.819-291.612.696-18.268-7.946 15.99-18.974 26.768-21.289 11.238-2.437 17.661-1.983 17.661-1.983-20.317-14.311-131.316 28.102-56.384 40.251 204.358 33.14 372.523-14.925 319.515-38.833M209.624 281.82s-93.056 22.1-32.952 30.128c25.375 3.397 75.965 2.628 123.087-1.317 38.511-3.25 77.178-10.156 77.178-10.156s-13.579 5.814-23.403 12.523c-94.495 24.854-277.045 13.289-224.491-12.131 44.444-21.483 80.581-19.047 80.581-19.047m166.93 93.309c96.058-49.917 51.643-97.885 20.642-91.423-7.598 1.582-10.985 2.951-10.985 2.951s2.822-4.418 8.21-6.329c61.327-21.562 108.494 63.592-19.799 97.316-.001.001 1.487-1.326 1.932-2.515M318.64 0s53.196 53.216-50.459 135.05c-83.122 65.643-18.955 103.071-.035 145.834-48.52-43.776-84.126-82.312-60.239-118.178C242.971 110.058 340.102 84.533 318.64 0"/><path fill="#FFF" d="M219.063 510.391c92.205 5.902 233.794-3.275 237.149-46.905 0 0-6.446 16.54-76.203 29.675-78.698 14.811-175.763 13.081-233.332 3.589.002-.001 11.785 9.753 72.386 13.641"/></svg>