<?xml version="1.0" encoding="utf-8"?>
<!-- Generator: Adobe Illustrator 19.0.0, SVG Export Plug-In . SVG Version: 6.00 Build 0)  -->
<svg version="1.1" id="Capa_1" xmlns="http://www.w3.org/2000/svg" xmlns:xlink="http://www.w3.org/1999/xlink" x="0px" y="0px"
	 viewBox="-50 141 511 511" style="enable-background:new -50 141 511 511;" xml:space="preserve">
<style type="text/css">
	.st0{fill:#FFFFFF;}
</style>
<g>
	<path class="st0" d="M421,243.8c0-0.2,0-0.4-0.1-0.5c0-0.1,0-0.1,0-0.2c0-0.2-0.1-0.4-0.2-0.6c0,0,0-0.1,0-0.1
		c-0.1-0.2-0.1-0.4-0.2-0.6c0,0,0-0.1,0-0.1c-0.1-0.2-0.2-0.4-0.3-0.6c0,0,0-0.1-0.1-0.1c-0.1-0.2-0.2-0.3-0.3-0.5
		c0,0-0.1-0.1-0.1-0.1c-0.1-0.2-0.2-0.3-0.3-0.4c0-0.1-0.1-0.1-0.1-0.2c-0.2-0.2-0.3-0.4-0.5-0.5l-96-96c-0.2-0.2-0.4-0.3-0.5-0.5
		c0,0-0.1-0.1-0.2-0.1c-0.1-0.1-0.3-0.2-0.4-0.3c0,0-0.1-0.1-0.1-0.1c-0.2-0.1-0.3-0.2-0.5-0.3c0,0-0.1,0-0.1-0.1
		c-0.2-0.1-0.4-0.2-0.6-0.3c0,0-0.1,0-0.1,0c-0.2-0.1-0.4-0.2-0.6-0.2c0,0-0.1,0-0.1,0c-0.2-0.1-0.4-0.1-0.6-0.2c-0.1,0-0.1,0-0.2,0
		c-0.2,0-0.4-0.1-0.5-0.1c-0.2,0-0.5,0-0.7,0h-224C71.7,141,54,158.7,54,180.5V221H21.5C4.1,221-10,235.1-10,252.5v80
		c0,17.4,14.1,31.5,31.5,31.5H54v248.5c0,21.8,17.7,39.5,39.5,39.5h288c21.8,0,39.5-17.7,39.5-39.5v-368
		C421,244.2,421,244,421,243.8z M325,166.6l70.4,70.4h-45.9c-13.5,0-24.5-11-24.5-24.5V166.6z M5,332.5v-80
		c0-9.1,7.4-16.5,16.5-16.5h232c9.1,0,16.5,7.4,16.5,16.5v80c0,9.1-7.4,16.5-16.5,16.5h-192c0,0,0,0,0,0s0,0,0,0h-40
		C12.4,349,5,341.6,5,332.5z M381.5,637h-288C80,637,69,626,69,612.5V364h184.5c17.4,0,31.5-14.1,31.5-31.5v-80
		c0-17.4-14.1-31.5-31.5-31.5H69v-40.5C69,167,80,156,93.5,156H310v56.5c0,21.8,17.7,39.5,39.5,39.5H406v360.5
		C406,626,395,637,381.5,637z"/>
	<path class="st0" d="M277.5,549c-2,0-3.9,0.8-5.3,2.2c-1.4,1.4-2.2,3.3-2.2,5.3s0.8,3.9,2.2,5.3c1.4,1.4,3.3,2.2,5.3,2.2
		s3.9-0.8,5.3-2.2c1.4-1.4,2.2-3.3,2.2-5.3s-0.8-3.9-2.2-5.3C281.4,549.8,279.5,549,277.5,549z"/>
	<path class="st0" d="M45,308h20.5c15.2,0,27.5-12.3,27.5-27.5S80.7,253,65.5,253h-28c-4.1,0-7.5,3.4-7.5,7.5v64
		c0,4.1,3.4,7.5,7.5,7.5s7.5-3.4,7.5-7.5V308z M78,280.5c0,6.9-5.6,12.5-12.5,12.5H45v-25h20.5C72.4,268,78,273.6,78,280.5z"/>
	<path class="st0" d="M197.5,332c4.1,0,7.5-3.4,7.5-7.5V308h20.5c15.2,0,27.5-12.3,27.5-27.5S240.7,253,225.5,253h-28
		c-4.1,0-7.5,3.4-7.5,7.5v64C190,328.6,193.4,332,197.5,332z M238,280.5c0,6.9-5.6,12.5-12.5,12.5H205v-25h20.5
		C232.4,268,238,273.6,238,280.5z"/>
	<path class="st0" d="M109.5,332c4.1,0,7.5-3.4,7.5-7.5V308h41v16.5c0,4.1,3.4,7.5,7.5,7.5s7.5-3.4,7.5-7.5v-64
		c0-4.1-3.4-7.5-7.5-7.5s-7.5,3.4-7.5,7.5V293h-41v-32.5c0-4.1-3.4-7.5-7.5-7.5s-7.5,3.4-7.5,7.5v64C102,328.6,105.4,332,109.5,332z
		"/>
	<path class="st0" d="M218.8,439.2c-2.9-2.9-7.7-2.9-10.6,0l-56,56c-2.9,2.9-2.9,7.7,0,10.6l56,56c1.5,1.5,3.4,2.2,5.3,2.2
		s3.8-0.7,5.3-2.2c2.9-2.9,2.9-7.7,0-10.6l-50.7-50.7l50.7-50.7C221.7,446.9,221.7,442.1,218.8,439.2z"/>
	<path class="st0" d="M277.5,437c-26.2,0-47.5,21.3-47.5,47.5c0,4.1,3.4,7.5,7.5,7.5s7.5-3.4,7.5-7.5c0-17.9,14.6-32.5,32.5-32.5
		s32.5,14.6,32.5,32.5S295.4,517,277.5,517c-4.1,0-7.5,3.4-7.5,7.5v8c0,4.1,3.4,7.5,7.5,7.5s7.5-3.4,7.5-7.5v-1.1
		c22.6-3.6,40-23.3,40-46.9C325,458.3,303.7,437,277.5,437z"/>
</g>
</svg>
